<svg id="svg" version="1.1" xmlns="http://www.w3.org/2000/svg" xmlns:xlink="http://www.w3.org/1999/xlink" width="400" height="381.2443642921551" viewBox="0, 0, 400,381.2443642921551"><g id="svgg"><path id="path0" d="M309.309 10.308 C 303.369 10.566,298.175 10.872,297.767 10.987 C 297.344 11.106,294.735 14.304,291.715 18.403 L 286.406 25.609 278.100 25.609 L 269.795 25.609 267.179 28.050 C 265.740 29.393,263.467 31.436,262.128 32.590 C 258.641 35.593,258.481 35.251,266.741 42.463 L 273.788 48.617 279.662 48.423 L 285.536 48.229 285.372 57.082 L 285.209 65.934 289.073 72.552 L 292.937 79.170 292.699 97.198 L 292.461 115.226 284.283 123.515 L 276.105 131.805 264.067 131.733 L 252.029 131.662 243.392 115.696 C 238.642 106.914,234.544 99.512,234.285 99.246 C 233.921 98.873,230.741 98.679,220.333 98.394 C 208.643 98.075,206.776 97.947,206.269 97.435 C 205.948 97.110,200.860 90.463,194.962 82.663 C 189.064 74.863,183.889 68.339,183.463 68.165 C 182.673 67.843,125.410 60.932,123.654 60.947 C 123.125 60.952,122.412 61.063,122.071 61.194 C 121.729 61.325,109.903 74.270,95.791 89.959 C 81.679 105.648,61.550 127.737,51.060 139.044 C 40.571 150.352,31.588 160.039,31.099 160.571 L 30.210 161.538 30.634 184.196 L 31.059 206.853 20.380 227.853 L 9.701 248.854 10.804 252.540 C 11.914 256.249,12.333 256.929,13.364 256.685 C 15.578 256.160,36.443 242.119,36.763 240.938 C 36.951 240.243,38.200 234.276,39.539 227.677 C 40.877 221.077,42.082 215.802,42.216 215.954 C 42.350 216.106,43.624 224.017,45.048 233.533 L 47.636 250.835 46.382 251.928 C 42.333 255.454,26.691 270.345,26.691 270.672 C 26.691 270.888,29.037 278.099,31.905 286.698 L 37.119 302.332 37.245 335.478 C 37.329 357.435,37.496 368.749,37.741 368.994 C 38.148 369.402,64.591 369.049,65.274 368.627 C 65.960 368.203,67.885 354.905,67.358 354.232 C 67.110 353.916,63.702 350.122,59.784 345.800 L 52.660 337.943 52.704 310.450 C 52.728 295.329,52.850 280.171,52.975 276.765 L 53.201 270.572 68.869 256.813 L 84.537 243.054 89.682 233.790 L 94.827 224.527 95.256 211.362 C 95.492 204.121,95.702 198.175,95.723 198.149 C 95.745 198.122,96.289 197.987,96.934 197.849 L 98.106 197.598 98.106 213.852 L 98.106 230.106 89.450 243.613 L 80.794 257.120 80.794 267.371 L 80.794 277.621 90.803 290.298 L 100.812 302.975 107.624 327.735 L 114.437 352.495 114.257 359.972 C 114.157 364.167,114.222 367.706,114.406 368.034 C 114.879 368.880,148.404 368.937,148.728 368.093 C 148.839 367.803,148.837 366.139,148.723 364.396 L 148.516 361.226 140.708 353.291 L 132.900 345.356 130.468 340.307 L 128.036 335.257 120.827 306.319 L 113.618 277.380 125.896 256.105 L 138.174 234.830 133.094 213.492 C 130.300 201.756,128.089 192.079,128.181 191.987 C 128.273 191.895,134.606 195.081,142.255 199.066 C 149.904 203.051,156.412 206.312,156.718 206.312 C 157.024 206.312,163.722 203.614,171.604 200.316 C 179.485 197.018,186.107 194.253,186.320 194.171 C 186.532 194.088,185.834 198.122,184.764 203.149 L 182.823 212.277 187.183 222.550 L 191.543 232.822 192.055 260.776 L 192.567 288.729 197.816 299.491 L 203.066 310.252 203.066 335.167 L 203.066 360.081 205.584 363.431 C 207.680 366.219,208.301 366.814,209.281 366.971 C 209.929 367.076,218.088 367.731,227.412 368.428 C 236.736 369.124,245.176 369.778,246.168 369.881 C 248.883 370.164,248.882 370.165,249.630 363.351 L 250.297 357.279 249.469 356.367 C 248.449 355.244,226.986 332.273,224.859 330.027 L 223.321 328.404 219.878 304.959 L 216.435 281.515 215.570 244.905 C 215.095 224.770,214.748 208.245,214.799 208.184 C 214.933 208.022,224.407 207.334,224.548 207.476 C 224.614 207.541,228.727 222.360,233.688 240.407 C 238.649 258.454,242.958 273.676,243.262 274.234 C 243.693 275.023,259.630 297.989,284.242 333.286 C 284.771 334.044,284.982 335.881,285.482 344.091 C 286.069 353.729,286.108 354.009,286.999 355.079 C 287.501 355.683,291.086 359.400,294.964 363.340 L 302.015 370.504 318.816 370.980 C 332.027 371.355,335.714 371.363,336.069 371.018 C 336.600 370.499,335.962 355.357,335.382 354.734 C 335.197 354.536,327.233 349.335,317.684 343.176 L 300.322 331.980 282.865 298.812 L 265.408 265.645 259.156 238.052 C 255.718 222.876,252.797 209.885,252.666 209.183 C 252.396 207.737,262.405 193.806,264.118 193.243 C 264.561 193.097,271.810 192.253,280.227 191.367 C 294.655 189.847,295.576 189.707,296.321 188.926 C 296.755 188.470,306.140 178.636,317.175 167.073 L 337.241 146.048 337.249 143.087 C 337.254 141.459,336.985 125.707,336.653 108.084 L 336.048 76.041 333.979 69.671 C 332.842 66.167,331.933 63.281,331.961 63.257 C 332.560 62.737,358.721 44.265,359.023 44.149 C 359.262 44.057,362.696 45.203,366.654 46.696 C 370.612 48.188,374.175 49.407,374.572 49.404 C 375.722 49.397,389.259 45.161,389.769 44.648 C 390.121 44.295,389.565 28.626,389.189 28.305 C 389.184 28.301,383.215 25.346,375.924 21.740 L 362.669 15.184 346.312 16.814 C 337.316 17.710,329.919 18.392,329.875 18.329 C 326.681 13.809,322.671 9.743,321.451 9.789 C 320.713 9.817,315.248 10.051,309.309 10.308 M324.292 15.708 C 325.738 17.425,326.745 18.919,326.564 19.079 C 326.168 19.431,290.681 25.337,290.436 25.092 C 290.341 24.996,292.179 22.314,294.522 19.132 L 298.781 13.345 300.428 13.300 C 301.333 13.275,304.427 13.141,307.304 13.003 C 310.180 12.864,314.595 12.722,317.114 12.687 L 321.695 12.624 324.292 15.708 M361.046 18.701 C 361.046 19.068,360.397 23.881,359.603 29.396 C 358.810 34.911,358.161 39.480,358.161 39.550 C 358.161 39.619,357.988 39.675,357.778 39.675 C 357.331 39.675,332.913 21.294,332.913 20.958 C 332.913 20.771,356.766 18.245,360.054 18.083 C 360.796 18.047,361.046 18.202,361.046 18.701 M375.637 24.500 C 381.300 27.262,385.933 29.627,385.933 29.756 C 385.933 30.296,374.942 45.417,374.727 45.173 C 374.472 44.884,365.014 20.084,365.014 19.706 C 365.014 19.319,365.054 19.337,375.637 24.500 M322.006 22.813 C 321.865 23.248,289.015 44.338,288.451 44.356 C 288.299 44.360,288.218 40.674,288.271 36.164 L 288.368 27.964 304.599 25.197 C 322.603 22.128,322.211 22.182,322.006 22.813 M328.349 31.470 C 328.476 36.479,328.685 45.325,328.815 51.127 L 329.050 61.677 328.186 61.682 C 327.711 61.685,323.995 61.926,319.928 62.218 C 315.861 62.510,311.687 62.751,310.651 62.754 L 308.769 62.759 299.019 54.974 C 293.657 50.691,289.271 47.080,289.272 46.948 C 289.274 46.697,327.501 22.362,327.893 22.362 C 328.017 22.362,328.223 26.461,328.349 31.470 M343.763 32.303 C 350.789 37.573,356.537 42.028,356.537 42.205 C 356.537 42.505,332.518 59.771,331.622 60.115 C 331.321 60.230,331.148 56.112,330.972 44.654 C 330.840 36.064,330.634 27.615,330.514 25.879 C 330.380 23.949,330.429 22.723,330.641 22.723 C 330.832 22.723,336.737 27.034,343.763 32.303 M367.986 34.222 C 370.353 40.427,372.205 45.588,372.102 45.691 C 371.898 45.896,361.062 41.928,360.551 41.462 C 360.298 41.230,361.772 29.319,362.727 23.880 C 363.100 21.756,363.621 22.781,367.986 34.222 M286.018 35.257 C 286.015 39.175,285.887 42.578,285.734 42.819 C 285.471 43.232,274.021 29.954,273.524 28.659 C 273.352 28.211,274.257 28.133,279.673 28.133 L 286.023 28.133 286.018 35.257 M277.337 37.115 C 281.123 41.658,284.220 45.472,284.220 45.591 C 284.220 45.710,282.065 45.807,279.431 45.807 L 274.643 45.807 269.422 41.263 C 266.551 38.763,263.907 36.435,263.547 36.089 C 262.918 35.485,263.039 35.327,266.562 32.157 C 268.581 30.341,270.282 28.855,270.343 28.855 C 270.404 28.855,273.551 32.572,277.337 37.115 M387.196 37.241 C 387.605 43.300,387.853 42.863,383.228 44.248 C 377.281 46.029,377.344 46.118,380.952 41.005 C 387.259 32.067,386.862 32.306,387.196 37.241 M298.918 57.879 C 303.133 61.231,306.583 64.067,306.583 64.182 C 306.583 64.297,303.845 67.124,300.500 70.465 L 294.417 76.540 291.532 71.543 C 289.946 68.795,288.468 66.202,288.249 65.780 C 287.973 65.249,287.919 62.621,288.076 57.217 L 288.302 49.420 289.778 50.602 C 290.589 51.252,294.702 54.527,298.918 57.879 M157.490 67.488 L 182.429 70.484 193.312 84.848 C 199.298 92.749,204.145 99.418,204.082 99.669 C 203.815 100.734,174.431 146.081,174.176 145.822 C 173.875 145.517,125.158 63.921,125.158 63.723 C 125.158 63.658,126.821 63.805,128.855 64.049 C 130.888 64.293,143.774 65.841,157.490 67.488 M331.333 69.973 C 332.391 73.246,333.220 76.014,333.175 76.124 C 332.976 76.609,318.369 89.991,318.038 89.991 C 317.635 89.991,310.113 65.602,310.420 65.293 C 310.619 65.093,327.071 63.897,328.545 63.976 C 329.335 64.018,329.572 64.528,331.333 69.973 M147.165 105.260 C 170.979 145.195,171.856 146.719,170.788 146.309 C 170.492 146.195,148.864 139.832,122.726 132.167 C 96.588 124.502,75.014 118.126,74.783 117.998 C 74.270 117.712,121.879 64.558,122.548 64.668 C 122.799 64.709,133.877 82.976,147.165 105.260 M311.604 77.912 C 313.467 84.064,314.898 89.190,314.785 89.303 C 314.519 89.568,305.958 84.514,296.887 78.737 L 296.029 78.191 301.752 72.459 C 304.900 69.306,307.643 66.727,307.847 66.727 C 308.051 66.727,309.742 71.760,311.604 77.912 M333.634 83.326 C 333.634 87.763,334.262 120.712,334.520 129.785 C 334.652 134.455,334.593 136.358,334.316 136.266 C 333.859 136.114,318.783 93.834,318.928 93.111 C 319.058 92.468,332.602 79.753,333.183 79.730 C 333.515 79.716,333.634 80.665,333.634 83.326 M305.228 86.604 C 310.437 89.800,314.816 92.523,314.961 92.656 C 315.105 92.788,310.763 97.355,305.312 102.803 L 295.401 112.709 295.401 96.751 C 295.401 87.975,295.482 80.794,295.580 80.794 C 295.678 80.794,300.020 83.408,305.228 86.604 M317.042 95.357 C 317.042 95.432,320.694 105.769,325.158 118.329 C 334.207 143.791,333.400 141.389,332.898 141.389 C 332.408 141.389,296.123 115.781,296.123 115.435 C 296.123 115.290,300.659 110.682,306.204 105.196 C 314.890 96.601,317.042 94.648,317.042 95.357 M229.871 101.306 L 232.691 101.533 240.962 116.795 C 248.951 131.536,249.551 132.732,248.963 132.733 C 248.665 132.733,179.237 146.306,177.862 146.632 C 176.645 146.921,175.915 148.139,191.904 123.216 L 206.424 100.583 216.737 100.831 C 222.410 100.967,228.320 101.181,229.871 101.306 M311.271 129.238 C 328.531 141.370,329.984 142.471,328.750 142.471 C 327.716 142.471,279.917 132.878,279.658 132.618 C 279.310 132.270,294.022 117.221,294.463 117.474 C 294.681 117.599,302.245 122.893,311.271 129.238 M124.076 134.949 C 149.964 142.525,171.265 148.824,171.411 148.947 C 171.735 149.219,126.667 186.655,126.015 186.655 C 125.552 186.655,76.105 122.115,76.105 121.510 C 76.105 120.919,76.879 121.136,124.076 134.949 M82.529 159.535 C 88.183 179.513,92.743 195.922,92.663 195.999 C 92.544 196.112,70.814 199.691,38.954 204.844 C 36.673 205.213,34.764 205.476,34.711 205.428 C 34.659 205.380,42.547 187.584,52.239 165.881 C 61.931 144.177,70.208 125.635,70.632 124.675 C 71.056 123.715,71.593 122.993,71.826 123.070 C 72.058 123.148,76.874 139.557,82.529 159.535 M99.729 156.596 C 123.440 187.727,123.536 187.856,123.254 188.137 C 122.842 188.550,95.428 195.480,95.195 195.231 C 94.866 194.878,75.744 127.310,75.744 126.498 C 75.744 125.202,77.421 127.306,99.729 156.596 M67.087 126.586 C 67.087 127.232,34.315 200.344,33.974 200.458 C 33.654 200.564,33.493 195.899,32.985 171.686 L 32.791 162.489 49.663 144.364 C 65.578 127.268,67.087 125.728,67.087 126.586 M257.889 134.626 C 257.888 134.874,258.708 147.775,259.712 163.294 L 261.536 191.512 255.906 198.912 C 250.365 206.195,250.255 206.312,248.943 206.307 C 248.210 206.305,243.309 205.982,238.052 205.591 C 232.795 205.199,228.291 204.876,228.043 204.874 C 227.274 204.866,227.291 204.814,239.812 169.338 L 252.031 134.716 253.428 134.497 C 256.002 134.092,257.890 134.147,257.889 134.626 M275.091 134.664 C 275.220 134.793,264.011 181.858,263.790 182.116 C 263.334 182.649,263.059 179.606,261.833 160.425 C 261.082 148.665,260.370 137.923,260.253 136.552 L 260.038 134.060 267.503 134.301 C 271.609 134.433,275.023 134.597,275.091 134.664 M306.673 140.539 C 321.303 143.479,333.273 145.985,333.273 146.108 C 333.273 146.297,302.397 178.812,297.184 184.113 C 296.218 185.095,295.321 185.792,295.190 185.662 C 294.985 185.457,281.806 145.470,279.369 137.657 L 278.486 134.827 279.279 135.011 C 279.715 135.111,292.042 137.599,306.673 140.539 M246.284 136.093 C 246.142 136.674,190.180 188.775,189.533 188.928 C 189.065 189.040,175.742 149.837,176.119 149.459 C 176.311 149.267,244.634 135.723,245.743 135.657 C 246.118 135.634,246.351 135.822,246.284 136.093 M247.766 139.495 C 247.753 139.842,242.600 154.653,236.315 172.408 L 224.887 204.689 222.182 204.917 C 220.694 205.043,218.169 205.247,216.570 205.371 L 213.663 205.596 202.503 198.720 C 196.366 194.938,191.213 191.714,191.053 191.556 C 190.754 191.259,246.829 138.864,247.446 138.864 C 247.636 138.864,247.780 139.148,247.766 139.495 M278.945 143.823 C 284.841 161.683,292.876 186.610,292.876 187.042 C 292.876 187.325,292.613 187.556,292.290 187.556 C 291.967 187.556,285.621 188.216,278.186 189.022 C 270.752 189.829,264.587 190.406,264.486 190.305 C 264.332 190.151,276.043 140.659,276.552 139.315 C 276.945 138.277,277.391 139.119,278.945 143.823 M171.686 152.791 C 171.686 153.164,156.194 202.808,156.025 202.977 C 155.862 203.140,129.761 189.724,128.626 188.894 C 128.066 188.484,130.407 186.430,149.570 170.512 C 169.693 153.797,171.686 152.200,171.686 152.791 M181.264 172.879 C 184.570 182.759,187.217 190.889,187.146 190.946 C 186.747 191.262,158.946 202.709,158.839 202.602 C 158.725 202.488,173.493 154.687,174.073 153.291 C 174.412 152.475,174.682 153.212,181.264 172.879 M122.569 191.314 C 122.329 192.366,101.514 225.400,101.082 225.414 C 100.729 225.425,100.631 222.313,100.631 211.015 L 100.631 196.602 101.984 196.209 C 103.949 195.638,122.038 190.874,122.389 190.835 C 122.552 190.817,122.633 191.032,122.569 191.314 M130.137 212.353 C 135.323 234.201,135.182 233.490,134.265 233.239 C 133.918 233.144,126.452 232.367,117.674 231.511 C 108.895 230.655,101.713 229.830,101.713 229.677 C 101.713 229.267,124.890 192.245,125.146 192.245 C 125.266 192.245,127.512 201.294,130.137 212.353 M200.928 200.454 C 206.655 203.973,211.276 207.037,211.198 207.263 C 210.961 207.944,193.662 229.757,193.358 229.757 C 192.991 229.757,185.753 212.592,185.753 211.720 C 185.753 211.353,186.564 207.231,187.556 202.560 C 188.548 197.889,189.360 193.965,189.360 193.839 C 189.360 193.397,190.609 194.112,200.928 200.454 M93.058 199.910 C 93.059 200.753,92.874 206.470,92.648 212.615 L 92.237 223.787 87.819 231.717 C 85.390 236.079,83.232 239.704,83.024 239.773 C 82.603 239.914,45.725 206.930,45.756 206.441 C 45.771 206.210,90.055 198.623,92.606 198.414 C 92.902 198.390,93.057 198.905,93.058 199.910 M40.943 207.845 C 40.839 208.291,39.295 215.784,37.511 224.495 C 35.728 233.206,34.227 240.369,34.176 240.412 C 33.749 240.777,14.601 252.935,14.230 253.077 C 13.893 253.207,13.558 252.623,13.134 251.166 L 12.525 249.068 20.326 233.731 C 24.617 225.296,29.306 216.123,30.746 213.345 L 33.363 208.296 36.610 207.703 C 41.128 206.878,41.168 206.879,40.943 207.845 M239.228 207.982 C 244.537 208.332,249.019 208.708,249.190 208.818 C 249.503 209.020,244.102 265.306,243.734 265.674 C 243.449 265.959,243.516 266.195,235.172 235.888 C 230.993 220.712,227.479 207.990,227.364 207.617 C 227.179 207.021,227.301 206.963,228.365 207.142 C 229.031 207.254,233.920 207.632,239.228 207.982 M61.685 224.191 C 81.138 241.633,80.661 241.190,80.323 241.529 C 80.045 241.807,50.383 249.922,50.205 249.769 C 50.104 249.682,44.011 209.719,44.006 209.107 C 44.000 208.406,45.648 209.812,61.685 224.191 M212.116 210.730 C 212.235 211.060,213.759 275.415,213.650 275.540 C 213.337 275.898,212.499 274.085,203.623 253.844 L 194.336 232.665 202.939 221.673 C 210.427 212.106,211.954 210.285,212.116 210.730 M257.242 241.453 C 260.194 254.511,262.549 265.253,262.477 265.326 C 262.267 265.536,245.840 271.569,245.742 271.471 C 245.636 271.365,250.598 220.339,250.880 218.642 C 251.327 215.945,252.110 218.751,257.242 241.453 M118.266 233.898 C 127.073 234.785,134.341 235.573,134.418 235.650 C 134.560 235.793,113.436 272.591,112.865 273.195 C 112.329 273.761,112.318 273.727,106.742 253.344 C 103.763 242.454,101.239 233.260,101.134 232.913 C 100.887 232.094,99.631 232.022,118.266 233.898 M99.331 235.077 C 100.423 238.689,109.648 272.833,109.648 273.264 C 109.648 273.661,109.454 273.763,109.017 273.597 C 107.313 272.947,84.062 257.301,84.209 256.902 C 84.347 256.530,87.644 251.341,97.274 236.339 C 98.561 234.334,99.021 234.052,99.331 235.077 M204.461 261.445 L 213.855 282.854 209.310 294.268 C 206.809 300.545,204.634 305.826,204.475 306.004 C 204.316 306.182,202.146 302.206,199.652 297.167 L 195.117 288.007 194.767 269.612 C 194.323 246.322,194.317 239.254,194.738 239.693 C 194.919 239.882,199.294 249.670,204.461 261.445 M77.464 245.356 C 77.179 246.251,52.805 267.533,52.460 267.188 C 52.209 266.937,50.396 252.459,50.592 252.264 C 50.746 252.110,76.700 244.987,77.307 244.932 C 77.472 244.918,77.543 245.108,77.464 245.356 M48.497 255.455 C 48.752 256.973,50.134 268.042,50.135 268.581 C 50.135 268.867,47.972 269.063,43.012 269.224 C 39.094 269.351,34.935 269.549,33.771 269.664 C 30.880 269.950,30.766 270.100,39.851 261.644 C 48.529 253.568,48.216 253.791,48.497 255.455 M97.454 268.946 C 104.558 273.622,110.370 277.631,110.370 277.856 C 110.370 278.800,101.899 299.371,101.557 299.257 C 101.352 299.188,97.163 294.045,92.251 287.828 L 83.318 276.524 83.318 268.251 C 83.318 260.629,83.366 259.995,83.928 260.211 C 84.264 260.340,90.350 264.271,97.454 268.946 M272.515 295.588 C 277.595 310.966,281.688 323.737,281.611 323.968 C 281.424 324.528,246.394 274.950,246.358 274.073 C 246.349 273.878,262.297 267.737,263.019 267.657 C 263.162 267.641,267.435 280.210,272.515 295.588 M49.408 271.686 C 49.398 272.525,39.086 297.341,38.694 297.472 C 38.335 297.591,29.690 272.439,29.989 272.149 C 30.060 272.081,33.931 271.873,38.593 271.688 C 43.255 271.503,47.597 271.325,48.242 271.293 C 48.972 271.257,49.412 271.405,49.408 271.686 M50.135 303.727 C 50.135 323.065,50.027 330.051,49.730 329.952 C 49.325 329.817,40.093 303.433,39.976 302.074 C 39.942 301.677,41.879 296.564,44.281 290.712 C 49.893 277.041,49.754 277.367,49.960 277.367 C 50.056 277.367,50.135 289.229,50.135 303.727 M117.867 305.230 C 124.072 330.114,123.886 329.306,123.400 329.306 C 123.151 329.306,104.772 304.103,103.735 302.339 C 103.581 302.076,104.999 298.017,107.075 292.780 C 109.059 287.775,110.852 283.233,111.058 282.687 C 111.265 282.142,111.561 281.695,111.716 281.695 C 111.871 281.695,114.639 292.286,117.867 305.230 M284.739 308.039 C 296.332 330.080,297.107 331.669,296.399 331.931 C 295.983 332.086,293.690 332.167,291.306 332.112 L 286.969 332.011 279.111 308.206 C 274.789 295.113,271.249 284.163,271.244 283.872 C 271.222 282.541,273.033 285.785,284.739 308.039 M217.476 306.515 C 218.915 316.298,219.978 324.414,219.839 324.550 C 219.699 324.686,219.074 324.212,218.449 323.498 C 217.824 322.783,214.757 319.349,211.632 315.866 C 208.508 312.383,205.951 309.358,205.951 309.143 C 205.951 308.776,213.739 289.080,214.142 288.427 C 214.619 287.654,215.029 289.879,217.476 306.515 M116.277 323.842 L 125.463 336.593 121.135 342.598 C 116.108 349.572,116.335 349.394,115.628 346.913 C 112.871 337.239,105.681 310.760,105.681 310.280 C 105.681 309.235,106.616 310.432,116.277 323.842 M45.110 324.603 C 47.657 332.019,49.626 338.274,49.487 338.502 C 48.590 339.972,40.615 350.586,40.408 350.586 C 40.138 350.586,39.677 330.055,39.676 318.004 C 39.676 312.907,39.791 310.889,40.077 310.985 C 40.298 311.058,42.563 317.186,45.110 324.603 M212.341 320.187 C 215.671 323.901,218.904 327.512,219.527 328.213 L 220.659 329.486 214.788 346.007 C 211.559 355.094,208.833 362.613,208.729 362.717 C 208.626 362.820,207.877 362.025,207.066 360.951 L 205.591 358.997 205.591 336.216 C 205.591 321.820,205.719 313.436,205.939 313.436 C 206.130 313.436,209.011 316.474,212.341 320.187 M234.428 344.153 C 246.405 356.921,246.396 356.911,245.356 357.213 C 243.757 357.679,211.256 363.946,211.125 363.815 C 211.043 363.733,213.497 356.560,216.579 347.876 C 219.661 339.191,222.182 332.028,222.182 331.958 C 222.182 331.260,224.472 333.540,234.428 344.153 M298.287 335.044 C 298.287 335.874,300.709 361.231,301.020 363.661 C 301.339 366.144,301.150 366.012,294.581 359.142 L 288.622 352.910 288.224 346.248 C 288.006 342.583,287.730 338.499,287.612 337.172 L 287.397 334.758 289.145 334.622 C 294.819 334.179,298.287 334.339,298.287 335.044 M316.141 345.306 C 324.472 350.702,331.224 355.275,331.143 355.467 C 330.946 355.937,304.085 367.325,303.813 367.054 C 303.696 366.936,302.982 360.383,302.228 352.491 C 301.474 344.599,300.781 337.534,300.688 336.790 C 300.467 335.013,299.008 334.209,316.141 345.306 M128.488 342.381 C 129.332 344.017,130.074 345.550,130.138 345.787 C 130.255 346.226,119.861 349.738,119.503 349.380 C 119.181 349.058,126.084 339.405,126.635 339.405 C 126.810 339.405,127.644 340.744,128.488 342.381 M58.243 348.031 C 61.917 352.082,64.923 355.652,64.923 355.967 C 64.923 356.999,63.533 365.081,63.319 365.295 C 63.204 365.410,59.663 363.833,55.450 361.790 C 51.238 359.747,46.211 357.324,44.281 356.405 C 42.351 355.486,40.833 354.562,40.907 354.351 C 41.220 353.471,50.983 340.469,51.259 340.564 C 51.426 340.621,54.568 343.981,58.243 348.031 M139.113 355.353 C 145.710 361.919,146.078 362.356,146.078 363.649 C 146.078 364.399,145.903 365.014,145.689 365.014 C 145.229 365.014,120.070 352.836,119.614 352.392 C 119.441 352.224,121.463 351.417,124.123 350.593 C 126.775 349.772,129.351 348.960,129.847 348.789 C 131.765 348.129,132.078 348.352,139.113 355.353 M131.380 360.823 C 136.488 363.323,140.667 365.532,140.667 365.732 C 140.667 365.969,136.529 366.096,128.765 366.096 L 116.862 366.096 116.862 359.973 L 116.862 353.850 119.477 355.065 C 120.915 355.732,126.271 358.324,131.380 360.823 M49.236 361.379 C 54.095 363.744,58.070 365.854,58.070 366.068 C 58.070 366.328,56.300 366.456,52.716 366.456 C 49.771 366.456,45.633 366.562,43.519 366.691 L 39.675 366.927 39.675 365.304 C 39.675 363.102,40.113 357.078,40.273 357.078 C 40.344 357.078,44.377 359.014,49.236 361.379 M333.398 360.415 C 333.525 362.051,333.631 364.567,333.632 366.005 L 333.634 368.620 329.725 368.620 C 320.727 368.620,309.448 368.139,309.574 367.761 C 309.674 367.462,332.045 357.616,332.949 357.473 C 333.069 357.455,333.271 358.778,333.398 360.415 M247.310 360.956 C 247.193 361.898,246.989 363.683,246.856 364.923 C 246.566 367.643,248.174 367.483,233.183 366.277 C 227.033 365.783,221.542 365.377,220.980 365.376 C 220.368 365.375,220.014 365.207,220.097 364.958 C 220.207 364.626,245.035 359.383,247.026 359.271 C 247.410 359.249,247.475 359.630,247.310 360.956 " stroke="none" fill="#070707" fill-rule="evenodd"></path><path id="path1" d="M310.911 13.003 C 308.034 13.141,304.183 13.275,302.353 13.300 L 299.025 13.345 294.688 19.105 C 292.303 22.273,290.352 24.925,290.352 24.998 C 290.352 25.123,325.699 19.298,326.426 19.053 C 326.616 18.989,325.617 17.516,324.208 15.780 L 321.644 12.624 318.892 12.687 C 317.379 12.722,313.787 12.864,310.911 13.003 M347.291 19.495 C 339.825 20.230,333.534 20.893,333.311 20.967 C 333.088 21.042,338.511 25.304,345.363 30.439 C 352.215 35.573,357.870 39.712,357.931 39.635 C 358.079 39.447,361.065 18.285,360.953 18.214 C 360.905 18.183,354.757 18.760,347.291 19.495 M365.188 20.108 C 365.327 20.455,367.480 26.096,369.973 32.642 C 372.467 39.188,374.623 44.678,374.764 44.842 C 374.906 45.005,377.476 41.678,380.475 37.448 L 385.929 29.757 375.742 24.636 C 364.873 19.173,364.803 19.143,365.188 20.108 M305.411 25.248 C 296.335 26.769,288.847 28.080,288.772 28.163 C 288.696 28.246,288.515 31.952,288.371 36.398 L 288.108 44.482 289.320 43.759 C 291.753 42.306,321.561 23.349,321.888 23.047 C 322.578 22.407,321.547 22.545,305.411 25.248 M308.799 34.440 C 298.414 41.050,289.778 46.597,289.609 46.766 C 289.297 47.078,289.943 47.620,302.136 57.293 L 309.051 62.779 318.908 62.138 L 328.765 61.497 328.765 58.972 C 328.765 50.823,328.099 22.367,327.909 22.392 C 327.785 22.408,319.185 27.829,308.799 34.440 M330.880 35.548 C 331.010 42.678,331.216 51.127,331.339 54.323 L 331.562 60.133 343.959 51.316 C 350.778 46.466,356.357 42.374,356.357 42.222 C 356.357 42.006,343.426 32.117,332.067 23.645 L 330.644 22.584 330.880 35.548 M361.815 31.289 C 361.159 36.001,360.545 40.195,360.449 40.610 C 360.299 41.263,371.597 46.196,372.098 45.696 C 372.258 45.536,363.452 22.723,363.230 22.723 C 363.107 22.723,362.471 26.578,361.815 31.289 M276.777 28.473 L 273.482 28.674 279.482 35.871 L 285.482 43.067 285.750 36.051 C 285.897 32.192,285.942 28.832,285.851 28.584 C 285.676 28.109,283.223 28.079,276.777 28.473 M266.694 32.184 L 263.054 35.425 264.710 36.940 C 265.621 37.774,268.255 40.110,270.563 42.131 L 274.759 45.807 279.108 45.807 C 281.499 45.807,283.547 45.660,283.658 45.481 C 283.796 45.257,271.512 29.995,270.385 28.990 C 270.357 28.964,268.696 30.402,266.694 32.184 M382.535 38.997 C 378.657 44.461,378.048 45.446,378.552 45.446 C 378.701 45.446,380.768 44.845,383.145 44.110 L 387.466 42.773 387.243 40.413 C 387.121 39.114,387.019 37.038,387.018 35.798 C 387.014 32.738,386.943 32.789,382.535 38.997 M288.188 57.628 L 288.188 65.481 291.183 70.679 C 292.830 73.538,294.333 75.929,294.522 75.992 C 294.897 76.117,306.832 64.318,306.565 64.086 C 305.312 62.997,288.500 49.775,288.369 49.775 C 288.269 49.775,288.188 53.309,288.188 57.628 M125.579 64.173 C 125.762 64.678,174.346 146.066,174.411 145.976 C 177.871 141.153,204.108 99.385,203.872 99.075 C 203.692 98.840,198.797 92.362,192.992 84.681 C 183.654 72.323,182.307 70.692,181.300 70.521 C 174.866 69.431,125.443 63.799,125.579 64.173 M317.627 64.772 C 313.882 65.039,310.731 65.344,310.625 65.449 C 310.519 65.555,312.106 71.154,314.152 77.891 L 317.870 90.140 318.648 89.524 C 321.291 87.431,332.912 76.213,332.910 75.756 C 332.908 75.452,332.105 72.768,331.126 69.793 L 329.345 64.382 326.891 64.335 C 325.541 64.309,321.372 64.506,317.627 64.772 M98.466 91.145 C 78.095 113.801,74.665 117.771,75.244 118.019 C 76.532 118.572,170.730 146.096,170.992 145.997 C 171.279 145.888,122.954 64.596,122.590 64.575 C 122.468 64.568,111.612 76.525,98.466 91.145 M302.074 72.498 C 298.919 75.658,296.411 78.302,296.500 78.374 C 297.355 79.059,314.627 89.461,314.733 89.354 C 314.890 89.198,308.282 67.224,307.992 66.934 C 307.892 66.834,305.229 69.338,302.074 72.498 M326.240 86.042 C 322.471 89.539,319.248 92.532,319.079 92.694 C 318.909 92.856,322.228 102.737,326.455 114.651 C 330.681 126.566,334.208 136.246,334.292 136.162 C 334.520 135.934,333.591 83.414,333.324 81.412 L 333.093 79.686 326.240 86.042 M295.401 96.730 L 295.401 112.709 305.306 102.809 C 310.754 97.364,315.177 92.881,315.135 92.847 C 315.056 92.783,296.154 81.189,295.672 80.908 C 295.523 80.822,295.401 87.942,295.401 96.730 M306.325 105.410 L 296.153 115.600 314.288 128.382 C 324.262 135.413,332.600 141.224,332.816 141.296 C 333.032 141.368,332.615 139.749,331.889 137.698 C 331.162 135.646,327.484 125.252,323.715 114.599 C 319.946 103.946,316.780 95.228,316.679 95.226 C 316.579 95.223,311.919 99.806,306.325 105.410 M191.823 123.518 C 181.883 139.050,177.349 146.433,177.757 146.422 C 179.277 146.380,248.889 132.516,248.947 132.243 C 248.983 132.074,245.296 125.073,240.753 116.686 L 232.494 101.437 222.920 101.209 C 217.654 101.083,211.803 100.895,209.919 100.789 L 206.492 100.598 191.823 123.518 M286.761 124.960 C 282.704 129.022,279.458 132.416,279.548 132.504 C 279.840 132.787,328.707 142.469,328.895 142.280 C 329.167 142.008,295.975 118.279,294.566 117.740 C 294.331 117.650,290.819 120.899,286.761 124.960 M76.165 121.528 C 76.332 121.998,125.463 186.398,125.825 186.621 C 125.986 186.721,136.308 178.346,148.763 168.010 C 164.244 155.162,171.252 149.134,170.915 148.952 C 169.091 147.966,75.983 121.018,76.165 121.528 M53.240 163.970 C 43.177 186.507,35.019 205.022,35.112 205.115 C 35.325 205.328,37.938 204.920,67.989 199.984 C 90.711 196.252,92.507 195.905,92.401 195.273 C 92.338 194.897,87.752 178.562,82.211 158.973 C 76.671 139.383,72.137 123.274,72.137 123.175 C 72.137 121.913,68.873 128.960,53.240 163.970 M49.775 144.409 C 34.387 161.027,33.003 162.625,33.003 163.768 C 33.003 171.247,33.683 200.541,33.856 200.540 C 34.034 200.540,65.908 129.528,66.924 126.871 C 67.495 125.375,65.686 127.225,49.775 144.409 M75.744 126.414 C 75.744 126.558,92.947 187.449,94.711 193.552 L 95.245 195.400 102.717 193.460 C 106.827 192.393,113.152 190.752,116.773 189.813 C 120.395 188.875,123.316 187.989,123.266 187.845 C 122.720 186.285,75.744 125.560,75.744 126.414 M260.415 135.420 C 260.415 136.035,261.064 146.512,261.858 158.702 C 262.651 170.891,263.300 181.180,263.300 181.566 C 263.300 181.951,263.410 182.157,263.544 182.023 C 264.071 181.495,275.086 134.714,274.699 134.647 C 274.480 134.608,271.177 134.515,267.358 134.439 L 260.415 134.302 260.415 135.420 M239.886 169.551 C 233.091 188.810,227.585 204.608,227.652 204.659 C 227.718 204.710,231.912 205.027,236.970 205.363 C 242.029 205.699,247.060 206.065,248.151 206.177 L 250.135 206.380 255.768 198.862 L 261.402 191.344 259.560 162.940 L 257.718 134.536 254.980 134.536 L 252.242 134.536 239.886 169.551 M278.890 135.708 C 278.977 135.956,282.681 147.319,287.121 160.960 C 291.561 174.601,295.292 185.719,295.412 185.667 C 296.589 185.156,333.106 146.215,332.608 146.002 C 331.896 145.697,280.087 135.257,279.286 135.257 C 278.982 135.257,278.804 135.460,278.890 135.708 M211.001 142.562 C 191.858 146.336,176.158 149.452,176.112 149.486 C 175.951 149.608,189.179 188.999,189.381 188.999 C 189.730 188.999,246.348 136.249,246.348 135.924 C 246.348 135.545,251.407 134.595,211.001 142.562 M219.116 165.052 C 203.643 179.447,190.949 191.258,190.908 191.299 C 190.868 191.339,195.899 194.503,202.090 198.330 L 213.345 205.287 218.575 205.039 C 221.452 204.903,224.058 204.657,224.366 204.494 C 224.823 204.253,247.791 140.166,247.791 139.133 C 247.791 138.435,245.498 140.508,219.116 165.052 M276.447 140.036 C 276.307 140.681,273.542 152.239,270.302 165.720 C 267.063 179.202,264.447 190.260,264.488 190.295 C 264.649 190.430,292.506 187.326,292.679 187.153 C 292.922 186.910,277.274 138.864,276.952 138.864 C 276.815 138.864,276.588 139.391,276.447 140.036 M149.824 170.463 C 137.944 180.316,128.175 188.417,128.116 188.465 C 128.057 188.513,134.298 191.813,141.985 195.797 C 149.671 199.782,155.980 203.007,156.003 202.964 C 156.231 202.549,171.604 152.728,171.528 152.652 C 171.471 152.595,161.705 160.611,149.824 170.463 M173.917 154.039 C 173.701 154.719,170.427 165.257,166.642 177.457 C 162.857 189.657,159.535 200.319,159.260 201.150 C 158.859 202.364,158.853 202.625,159.230 202.480 C 166.592 199.655,186.995 190.739,186.929 190.376 C 186.189 186.316,174.252 152.982,173.917 154.039 M111.329 193.867 C 105.807 195.325,101.242 196.571,101.186 196.636 C 100.876 196.993,100.612 225.428,100.918 225.428 C 101.110 225.428,105.863 218.084,111.478 209.107 C 117.094 200.131,121.920 192.421,122.203 191.975 C 122.937 190.813,122.813 190.835,111.329 193.867 M113.306 211.061 L 101.730 229.576 102.894 229.832 C 104.432 230.170,134.552 233.106,134.724 232.935 C 134.920 232.739,125.487 193.199,125.160 192.847 C 125.007 192.681,119.672 200.878,113.306 211.061 M189.601 193.964 C 189.515 194.110,188.605 198.227,187.578 203.114 L 185.711 211.998 189.362 220.607 C 191.370 225.342,193.127 229.332,193.267 229.475 C 193.506 229.719,210.877 207.957,211.017 207.238 C 211.053 207.053,207.290 204.565,202.656 201.708 C 198.021 198.852,193.223 195.882,191.993 195.107 C 190.762 194.333,189.686 193.819,189.601 193.964 M68.428 202.518 C 56.171 204.552,46.057 206.302,45.952 206.407 C 45.769 206.590,82.575 239.858,82.955 239.853 C 83.055 239.852,85.157 236.241,87.624 231.828 L 92.110 223.805 92.379 215.870 C 92.526 211.506,92.734 205.866,92.840 203.336 L 93.033 198.738 91.873 198.779 C 91.235 198.801,80.684 200.484,68.428 202.518 M37.061 207.767 C 32.796 208.480,35.007 205.175,22.941 228.874 L 12.656 249.074 13.226 251.047 C 13.540 252.133,13.838 253.069,13.888 253.127 C 13.984 253.239,33.548 240.725,33.962 240.287 C 34.263 239.969,40.853 207.837,40.695 207.459 C 40.630 207.305,38.995 207.444,37.061 207.767 M227.592 207.619 C 227.592 208.016,243.523 265.639,243.676 265.795 C 243.757 265.878,243.821 265.797,243.818 265.615 C 243.816 265.433,245.054 252.659,246.571 237.228 C 248.088 221.798,249.254 209.098,249.163 209.007 C 248.762 208.606,227.592 207.244,227.592 207.619 M44.173 209.648 C 44.274 210.095,45.671 219.225,47.278 229.937 C 48.885 240.649,50.253 249.468,50.318 249.534 C 50.462 249.681,80.176 241.675,80.431 241.421 C 80.530 241.321,80.360 241.050,80.051 240.818 C 79.743 240.586,71.596 233.296,61.948 224.617 C 43.611 208.123,43.880 208.349,44.173 209.648 M203.301 221.466 C 198.606 227.423,194.725 232.424,194.677 232.579 C 194.629 232.734,198.810 242.488,203.968 254.254 C 212.982 274.817,213.350 275.579,213.459 273.898 C 213.582 271.995,212.117 210.915,211.944 210.742 C 211.886 210.683,207.997 215.510,203.301 221.466 M250.927 219.387 C 249.823 229.386,245.905 270.913,246.053 271.060 C 246.498 271.505,262.218 265.364,262.218 264.745 C 262.218 264.408,259.865 253.717,256.988 240.987 C 254.112 228.258,251.758 217.764,251.758 217.668 C 251.758 216.567,251.085 217.960,250.927 219.387 M101.335 232.523 C 101.302 233.074,112.351 273.399,112.534 273.397 C 112.673 273.395,124.462 253.131,133.514 237.336 L 134.476 235.657 118.906 234.132 C 110.343 233.293,102.890 232.520,102.344 232.415 C 101.799 232.310,101.345 232.359,101.335 232.523 M91.429 245.688 C 87.464 251.872,84.230 257.025,84.242 257.140 C 84.277 257.469,109.336 273.832,109.521 273.647 C 109.734 273.434,99.114 234.445,98.842 234.445 C 98.730 234.445,95.394 239.505,91.429 245.688 M194.567 248.512 C 194.675 253.571,194.871 264.516,195.002 272.836 L 195.239 287.962 199.739 297.107 C 202.214 302.136,204.284 306.204,204.340 306.146 C 204.597 305.878,213.526 283.277,213.526 282.893 C 213.526 282.442,195.334 240.816,194.717 239.856 C 194.491 239.505,194.439 242.550,194.567 248.512 M64.511 248.520 C 57.441 250.441,51.427 252.100,51.146 252.208 C 50.692 252.382,51.986 266.643,52.509 267.223 C 52.603 267.327,66.203 255.529,76.641 246.288 C 78.339 244.784,78.118 244.824,64.511 248.520 M39.721 261.914 L 31.651 269.515 39.901 269.273 C 44.439 269.141,48.567 268.953,49.074 268.858 L 49.996 268.684 49.183 262.115 C 48.735 258.502,48.361 255.261,48.351 254.914 C 48.319 253.852,48.043 254.076,39.721 261.914 M83.686 268.451 L 83.693 276.826 92.598 288.094 C 97.496 294.292,101.618 299.242,101.759 299.095 C 102.131 298.707,110.482 277.718,110.323 277.570 C 110.184 277.440,97.777 269.284,88.819 263.433 L 83.679 260.076 83.686 268.451 M254.824 270.831 C 250.658 272.379,247.038 273.715,246.778 273.800 C 246.479 273.898,252.653 283.061,263.644 298.835 C 278.952 320.802,282.398 325.527,281.603 323.455 C 281.490 323.158,277.317 310.557,272.332 295.452 C 266.926 279.075,263.092 267.995,262.833 268.003 C 262.594 268.010,258.990 269.283,254.824 270.831 M35.888 271.974 C 32.913 272.112,30.370 272.245,30.238 272.271 C 29.944 272.328,38.317 297.565,38.630 297.565 C 38.792 297.565,46.226 279.771,49.354 271.899 C 49.487 271.563,44.131 271.593,35.888 271.974 M44.995 289.340 C 42.268 296.008,40.036 301.644,40.036 301.864 C 40.036 302.085,42.187 308.544,44.815 316.217 L 49.594 330.169 49.860 314.859 C 50.006 306.439,50.087 294.524,50.040 288.383 L 49.955 277.217 44.995 289.340 M107.582 291.870 L 103.559 302.012 113.325 315.569 C 124.407 330.951,123.307 329.473,123.512 329.269 C 123.670 329.110,112.011 282.134,111.747 281.871 C 111.669 281.792,109.794 286.292,107.582 291.870 M271.362 284.391 C 271.475 284.684,275.089 295.580,279.395 308.605 L 287.224 332.286 291.942 332.030 C 294.537 331.889,296.720 331.714,296.794 331.640 C 297.036 331.398,271.890 283.859,271.520 283.859 C 271.321 283.859,271.250 284.099,271.362 284.391 M210.126 298.674 C 206.476 307.798,205.983 309.271,206.409 309.782 C 206.680 310.105,209.719 313.535,213.164 317.403 C 216.609 321.271,219.479 324.504,219.542 324.587 C 219.606 324.669,219.730 324.664,219.819 324.576 C 219.994 324.400,214.713 288.533,214.477 288.298 C 214.398 288.219,212.440 292.888,210.126 298.674 M105.764 310.640 C 105.853 310.888,108.253 319.577,111.098 329.949 C 115.239 345.042,116.361 348.714,116.720 348.344 C 119.302 345.675,125.193 336.657,124.787 335.993 C 121.510 330.643,105.097 308.768,105.764 310.640 M39.811 312.038 C 39.935 312.658,40.036 321.585,40.036 331.876 C 40.036 342.166,40.158 350.580,40.307 350.572 C 40.649 350.555,49.196 338.838,49.340 338.190 C 49.497 337.478,40.334 310.911,39.931 310.911 C 39.736 310.911,39.684 311.403,39.811 312.038 M205.752 336.429 L 206.017 359.423 207.332 361.151 C 208.055 362.101,208.690 362.750,208.742 362.594 C 208.795 362.437,211.435 355.013,214.608 346.096 C 217.782 337.179,220.379 329.752,220.379 329.592 C 220.379 329.163,206.202 313.436,205.815 313.436 C 205.619 313.436,205.593 322.659,205.752 336.429 M218.395 343.093 C 216.213 349.282,213.669 356.481,212.743 359.091 L 211.059 363.837 213.465 363.373 C 231.540 359.888,245.992 356.921,245.910 356.711 C 245.757 356.321,222.753 331.834,222.543 331.838 C 222.444 331.839,220.577 336.904,218.395 343.093 M290.983 334.624 L 287.827 334.744 287.855 336.984 C 287.871 338.216,288.074 342.347,288.307 346.164 L 288.730 353.104 294.681 359.068 C 299.148 363.545,300.658 364.863,300.740 364.354 C 300.847 363.685,298.466 337.803,298.088 335.528 C 297.895 334.368,297.873 334.356,296.016 334.429 C 294.984 334.470,292.719 334.558,290.983 334.624 M300.809 336.038 C 300.802 336.706,303.766 367.004,303.846 367.085 C 303.893 367.133,309.682 364.724,316.709 361.732 C 323.736 358.740,329.958 356.098,330.534 355.861 C 331.566 355.437,331.354 355.283,316.499 345.704 C 300.453 335.358,300.813 335.580,300.809 336.038 M122.885 344.324 C 120.941 347.021,119.399 349.273,119.459 349.329 C 119.565 349.429,129.919 346.274,130.140 346.074 C 130.334 345.899,126.968 339.404,126.687 339.413 C 126.540 339.418,124.829 341.628,122.885 344.324 M45.905 347.528 L 40.774 354.565 45.905 357.041 C 48.728 358.403,53.775 360.842,57.122 362.462 C 60.469 364.082,63.249 365.359,63.300 365.300 C 63.351 365.242,63.738 363.027,64.160 360.378 L 64.928 355.563 60.146 350.293 C 57.517 347.394,54.391 344.003,53.201 342.757 L 51.037 340.492 45.905 347.528 M125.518 350.254 C 122.444 351.231,119.793 352.075,119.628 352.129 C 119.330 352.228,145.319 365.014,145.817 365.014 C 147.956 365.014,133.982 348.884,131.547 348.541 C 131.306 348.507,128.593 349.278,125.518 350.254 M117.096 355.532 C 116.972 356.283,116.868 358.861,116.866 361.259 L 116.862 365.621 123.625 365.857 C 132.892 366.181,140.667 366.155,140.667 365.801 C 140.667 365.585,119.433 354.973,117.593 354.270 C 117.444 354.212,117.220 354.781,117.096 355.532 M40.036 361.746 L 40.036 366.456 48.852 366.456 C 53.700 366.456,57.752 366.319,57.855 366.152 C 57.959 365.984,54.113 363.930,49.310 361.586 C 44.507 359.243,40.455 357.260,40.307 357.180 C 40.158 357.101,40.036 359.155,40.036 361.746 M321.058 362.671 C 314.835 365.329,309.670 367.576,309.580 367.666 C 309.313 367.934,314.830 368.226,324.583 368.462 L 333.746 368.683 333.510 365.350 C 333.380 363.517,333.273 361.068,333.273 359.909 C 333.273 357.233,334.372 356.985,321.058 362.671 M232.719 362.202 C 225.719 363.602,220.078 364.833,220.182 364.937 C 220.442 365.197,246.095 367.190,246.318 366.967 C 246.416 366.869,246.674 365.172,246.891 363.196 L 247.285 359.603 246.366 359.630 C 245.860 359.645,239.719 360.802,232.719 362.202 " stroke="none" fill="#fbfbfb" fill-rule="evenodd"></path><path id="path2" d="M274.932 28.399 C 275.875 28.473,277.417 28.473,278.359 28.399 C 279.301 28.324,278.530 28.263,276.646 28.263 C 274.761 28.263,273.990 28.324,274.932 28.399 M288.306 34.445 C 288.308 35.834,288.373 36.358,288.451 35.610 C 288.529 34.861,288.528 33.725,288.448 33.085 C 288.368 32.445,288.304 33.057,288.306 34.445 M285.781 35.528 C 285.783 36.916,285.848 37.440,285.926 36.692 C 286.004 35.943,286.003 34.807,285.923 34.167 C 285.843 33.527,285.780 34.139,285.781 35.528 M328.327 37.692 C 328.329 38.683,328.400 39.046,328.482 38.498 C 328.565 37.950,328.563 37.138,328.478 36.695 C 328.392 36.251,328.324 36.700,328.327 37.692 M330.852 38.413 C 330.854 39.405,330.924 39.768,331.007 39.220 C 331.090 38.671,331.088 37.860,331.002 37.416 C 330.917 36.973,330.849 37.421,330.852 38.413 M117.133 52.145 C 116.587 52.441,116.141 52.756,116.141 52.844 C 116.141 53.046,118.003 52.266,118.467 51.870 C 119.032 51.388,118.218 51.556,117.133 52.145 M328.687 54.644 C 328.690 55.636,328.760 55.999,328.843 55.450 C 328.926 54.902,328.924 54.091,328.838 53.647 C 328.753 53.203,328.685 53.652,328.687 54.644 M359.402 53.589 C 358.726 54.137,358.733 54.149,359.603 53.954 C 360.099 53.843,360.627 53.750,360.775 53.747 C 360.924 53.744,361.046 53.580,361.046 53.381 C 361.046 52.840,360.192 52.947,359.402 53.589 M331.212 55.365 C 331.215 56.357,331.285 56.720,331.368 56.172 C 331.451 55.624,331.449 54.812,331.363 54.368 C 331.277 53.925,331.210 54.373,331.212 55.365 M352.456 58.483 C 350.944 59.554,350.572 60.295,351.908 59.575 C 352.540 59.235,354.484 57.332,354.166 57.365 C 354.081 57.374,353.312 57.877,352.456 58.483 M333.364 80.974 C 333.368 81.767,333.442 82.050,333.528 81.601 C 333.615 81.152,333.611 80.503,333.521 80.158 C 333.431 79.813,333.360 80.180,333.364 80.974 M333.742 99.549 C 333.742 100.640,333.810 101.087,333.892 100.541 C 333.975 99.995,333.975 99.103,333.892 98.557 C 333.810 98.012,333.742 98.458,333.742 99.549 M210.554 100.886 C 211.003 100.973,211.652 100.969,211.997 100.879 C 212.342 100.789,211.975 100.718,211.181 100.722 C 210.388 100.726,210.106 100.800,210.554 100.886 M223.539 101.247 C 223.988 101.333,224.637 101.330,224.982 101.240 C 225.327 101.149,224.959 101.079,224.166 101.083 C 223.372 101.087,223.090 101.161,223.539 101.247 M334.103 118.665 C 334.103 119.757,334.170 120.203,334.253 119.657 C 334.336 119.112,334.336 118.219,334.253 117.674 C 334.170 117.128,334.103 117.574,334.103 118.665 M263.756 134.434 C 264.304 134.517,265.116 134.514,265.560 134.429 C 266.003 134.343,265.555 134.275,264.563 134.278 C 263.571 134.281,263.208 134.351,263.756 134.434 M32.926 166.817 C 32.928 167.809,32.998 168.172,33.081 167.624 C 33.164 167.075,33.162 166.264,33.076 165.820 C 32.991 165.376,32.923 165.825,32.926 166.817 M316.197 179.560 C 315.539 180.286,315.394 180.873,315.958 180.524 C 316.335 180.292,317.168 178.900,316.931 178.900 C 316.855 178.900,316.525 179.197,316.197 179.560 M33.291 185.032 C 33.291 186.123,33.359 186.569,33.441 186.023 C 33.524 185.478,33.524 184.585,33.441 184.040 C 33.359 183.494,33.291 183.940,33.291 185.032 M92.780 202.705 C 92.780 203.399,92.854 203.683,92.945 203.336 C 93.035 202.989,93.035 202.421,92.945 202.074 C 92.854 201.727,92.780 202.011,92.780 202.705 M100.772 208.115 C 100.772 210.794,100.829 211.889,100.899 210.550 C 100.968 209.211,100.968 207.020,100.899 205.681 C 100.829 204.342,100.772 205.437,100.772 208.115 M173.862 208.386 C 173.868 208.535,174.096 208.950,174.368 209.309 C 174.918 210.035,175.501 209.539,175.156 208.639 C 174.952 208.107,173.841 207.890,173.862 208.386 M212.181 217.493 C 212.181 218.386,212.252 218.751,212.338 218.305 C 212.423 217.858,212.423 217.128,212.338 216.682 C 212.252 216.235,212.181 216.601,212.181 217.493 M176.405 218.575 C 176.405 218.873,176.729 219.684,177.124 220.379 C 177.664 221.328,177.784 221.417,177.605 220.739 C 177.275 219.486,176.404 217.916,176.405 218.575 M212.542 232.281 C 212.542 233.174,212.612 233.539,212.698 233.093 C 212.784 232.647,212.784 231.916,212.698 231.470 C 212.612 231.023,212.542 231.389,212.542 232.281 M223.790 240.962 C 223.660 241.173,223.638 241.432,223.742 241.536 C 224.025 241.819,225.428 241.301,225.428 240.913 C 225.428 240.449,224.083 240.489,223.790 240.962 M212.903 247.069 C 212.903 247.962,212.973 248.327,213.059 247.881 C 213.145 247.435,213.145 246.704,213.059 246.258 C 212.973 245.812,212.903 246.177,212.903 247.069 M194.521 251.939 C 194.523 253.129,194.591 253.572,194.671 252.924 C 194.751 252.276,194.749 251.302,194.667 250.760 C 194.585 250.218,194.519 250.748,194.521 251.939 M83.473 268.350 C 83.473 273.012,83.525 274.919,83.588 272.588 C 83.650 270.257,83.650 266.443,83.588 264.112 C 83.525 261.781,83.473 263.688,83.473 268.350 M213.263 262.218 C 213.263 263.111,213.334 263.476,213.420 263.030 C 213.506 262.583,213.506 261.853,213.420 261.407 C 213.334 260.960,213.263 261.326,213.263 262.218 M194.882 272.858 C 194.884 274.049,194.951 274.492,195.031 273.844 C 195.112 273.196,195.110 272.222,195.028 271.680 C 194.945 271.138,194.880 271.668,194.882 272.858 M49.920 313.796 C 49.920 316.871,49.975 318.129,50.043 316.592 C 50.110 315.054,50.110 312.538,50.043 311.001 C 49.975 309.463,49.920 310.721,49.920 313.796 M39.820 317.583 C 39.820 320.559,39.876 321.728,39.944 320.182 C 40.012 318.635,40.011 316.201,39.943 314.772 C 39.875 313.342,39.819 314.608,39.820 317.583 M264.022 318.685 C 264.022 319.148,266.941 323.970,267.832 324.977 C 268.270 325.473,268.892 326.401,269.214 327.040 C 269.806 328.215,271.619 330.124,271.887 329.856 C 271.968 329.776,270.525 327.550,268.682 324.909 C 264.675 319.168,264.022 318.295,264.022 318.685 M60.713 321.551 C 60.715 322.940,60.780 323.463,60.858 322.715 C 60.936 321.967,60.935 320.831,60.855 320.190 C 60.776 319.550,60.712 320.162,60.713 321.551 M230.839 324.323 C 230.839 324.635,231.082 325.091,231.380 325.338 C 232.068 325.909,232.061 325.374,231.368 324.458 C 230.944 323.897,230.839 323.870,230.839 324.323 M305.838 325.294 C 306.231 326.063,306.804 326.789,307.112 326.907 C 307.747 327.150,306.949 325.292,306.020 324.364 C 305.179 323.523,305.112 323.869,305.838 325.294 M135.633 332.381 C 135.641 332.574,135.971 333.300,136.367 333.995 C 136.903 334.937,137.024 335.028,136.844 334.355 C 136.586 333.390,135.608 331.796,135.633 332.381 M316.125 332.527 C 316.530 333.182,318.902 334.392,318.551 333.764 C 318.370 333.441,317.707 332.960,317.077 332.696 C 316.447 332.431,316.019 332.355,316.125 332.527 M322.483 336.636 C 322.565 336.700,323.201 337.120,323.895 337.568 L 325.158 338.382 324.076 337.453 C 323.481 336.941,322.845 336.522,322.663 336.521 C 322.481 336.520,322.400 336.572,322.483 336.636 M205.750 348.963 C 205.750 354.716,205.800 357.019,205.860 354.081 C 205.921 351.143,205.921 346.436,205.860 343.621 C 205.799 340.806,205.750 343.210,205.750 348.963 M139.515 340.323 C 140.138 341.566,143.174 344.815,143.713 344.815 C 144.103 344.815,141.709 341.658,140.295 340.307 L 138.785 338.864 139.515 340.323 M142.290 358.882 C 143.668 360.271,144.877 361.407,144.976 361.407 C 145.075 361.407,144.029 360.271,142.651 358.882 C 141.273 357.493,140.064 356.357,139.965 356.357 C 139.866 356.357,140.912 357.493,142.290 358.882 M75.080 360.746 C 75.049 361.275,74.918 362.006,74.789 362.369 C 74.610 362.876,74.658 362.935,74.996 362.625 C 75.243 362.397,75.370 361.686,75.287 361.002 C 75.166 360.012,75.127 359.964,75.080 360.746 M299.526 364.202 C 300.630 365.423,301.172 365.670,301.172 364.953 C 301.172 364.722,301.062 364.643,300.927 364.778 C 300.792 364.913,300.183 364.575,299.574 364.027 L 298.467 363.030 299.526 364.202 M39.789 365.707 C 39.826 366.187,40.099 366.646,40.397 366.726 C 40.754 366.822,40.799 366.771,40.529 366.574 C 40.304 366.410,40.030 365.951,39.921 365.555 C 39.765 364.986,39.737 365.018,39.789 365.707 M119.131 366.003 C 120.479 366.072,122.589 366.072,123.820 366.002 C 125.052 365.931,123.950 365.874,121.371 365.875 C 118.792 365.876,117.784 365.933,119.131 366.003 M310.464 368.154 C 310.913 368.240,311.562 368.237,311.907 368.147 C 312.252 368.057,311.885 367.986,311.091 367.990 C 310.298 367.994,310.015 368.068,310.464 368.154 M323.809 368.515 C 324.258 368.601,324.907 368.598,325.252 368.508 C 325.597 368.417,325.230 368.347,324.436 368.351 C 323.643 368.355,323.361 368.429,323.809 368.515 M106.224 370.781 C 106.077 371.020,106.218 371.477,106.540 371.798 C 107.027 372.285,107.123 372.294,107.118 371.854 C 107.109 370.963,106.536 370.276,106.224 370.781 " stroke="none" fill="#9e9e9e" fill-rule="evenodd"></path><path id="path3" d="M298.454 75.834 L 296.664 77.728 298.557 75.938 C 300.317 74.275,300.616 73.940,300.347 73.940 C 300.290 73.940,299.438 74.793,298.454 75.834 M299.175 112.263 L 297.385 114.157 299.279 112.367 C 301.038 110.704,301.338 110.370,301.068 110.370 C 301.011 110.370,300.159 111.222,299.175 112.263 M100.734 201.803 C 100.737 202.795,100.807 203.158,100.890 202.610 C 100.973 202.062,100.971 201.250,100.885 200.807 C 100.799 200.363,100.732 200.812,100.734 201.803 M49.883 321.010 C 49.883 322.101,49.950 322.547,50.033 322.002 C 50.116 321.456,50.116 320.564,50.033 320.018 C 49.950 319.472,49.883 319.919,49.883 321.010 M39.783 324.617 C 39.783 325.708,39.851 326.154,39.934 325.609 C 40.016 325.063,40.016 324.170,39.934 323.625 C 39.851 323.079,39.783 323.526,39.783 324.617 " stroke="none" fill="#7c7c7c" fill-rule="evenodd"></path><path id="path4" d="M330.479 25.068 C 330.483 25.861,330.557 26.143,330.643 25.695 C 330.729 25.246,330.726 24.597,330.636 24.252 C 330.545 23.907,330.475 24.274,330.479 25.068 M288.271 29.216 C 288.271 29.910,288.345 30.194,288.436 29.847 C 288.527 29.500,288.527 28.931,288.436 28.584 C 288.345 28.237,288.271 28.521,288.271 29.216 M328.307 33.904 C 328.307 34.599,328.382 34.883,328.472 34.536 C 328.563 34.188,328.563 33.620,328.472 33.273 C 328.382 32.926,328.307 33.210,328.307 33.904 M285.766 40.938 C 285.769 41.930,285.839 42.293,285.922 41.744 C 286.004 41.196,286.002 40.385,285.917 39.941 C 285.831 39.497,285.763 39.946,285.766 40.938 M330.839 42.020 C 330.843 42.813,330.917 43.095,331.004 42.647 C 331.090 42.198,331.087 41.549,330.996 41.204 C 330.906 40.859,330.835 41.226,330.839 42.020 M328.668 50.857 C 328.668 51.551,328.742 51.835,328.833 51.488 C 328.924 51.141,328.924 50.573,328.833 50.225 C 328.742 49.878,328.668 50.162,328.668 50.857 M331.193 59.152 C 331.193 59.847,331.267 60.131,331.358 59.784 C 331.448 59.436,331.448 58.868,331.358 58.521 C 331.267 58.174,331.193 58.458,331.193 59.152 M287.948 62.759 C 287.948 64.247,288.012 64.856,288.090 64.112 C 288.167 63.368,288.167 62.151,288.090 61.407 C 288.012 60.663,287.948 61.271,287.948 62.759 M303.871 70.424 L 300.271 74.121 303.968 70.521 C 307.401 67.177,307.829 66.727,307.568 66.727 C 307.514 66.727,305.851 68.390,303.871 70.424 M333.725 95.401 C 333.729 96.195,333.803 96.477,333.889 96.028 C 333.975 95.580,333.972 94.930,333.882 94.586 C 333.791 94.241,333.721 94.608,333.725 95.401 M307.480 103.968 L 300.992 110.550 307.574 104.061 C 313.690 98.033,314.320 97.385,314.063 97.385 C 314.011 97.385,311.049 100.347,307.480 103.968 M334.093 114.337 C 334.093 115.230,334.163 115.595,334.249 115.149 C 334.335 114.702,334.335 113.972,334.249 113.526 C 334.163 113.079,334.093 113.445,334.093 114.337 M290.341 121.100 L 288.007 123.535 290.442 121.201 C 291.781 119.917,292.876 118.821,292.876 118.766 C 292.876 118.501,292.509 118.839,290.341 121.100 M334.446 133.273 C 334.450 134.067,334.524 134.349,334.610 133.900 C 334.697 133.452,334.693 132.802,334.603 132.457 C 334.513 132.113,334.442 132.480,334.446 133.273 M267.903 134.430 C 268.352 134.516,269.001 134.513,269.346 134.423 C 269.691 134.332,269.324 134.262,268.530 134.266 C 267.737 134.270,267.455 134.344,267.903 134.430 M32.913 170.784 C 32.917 171.578,32.991 171.860,33.077 171.411 C 33.164 170.963,33.160 170.314,33.070 169.969 C 32.980 169.624,32.909 169.991,32.913 170.784 M33.274 189.179 C 33.278 189.973,33.352 190.255,33.438 189.806 C 33.524 189.358,33.521 188.709,33.431 188.364 C 33.341 188.019,33.270 188.386,33.274 189.179 M100.739 198.377 C 100.739 199.468,100.807 199.914,100.890 199.369 C 100.972 198.823,100.972 197.931,100.890 197.385 C 100.807 196.839,100.739 197.286,100.739 198.377 M212.527 229.035 C 212.527 229.729,212.602 230.014,212.692 229.666 C 212.783 229.319,212.783 228.751,212.692 228.404 C 212.602 228.057,212.527 228.341,212.527 229.035 M212.888 243.823 C 212.888 244.518,212.962 244.802,213.053 244.454 C 213.144 244.107,213.144 243.539,213.053 243.192 C 212.962 242.845,212.888 243.129,212.888 243.823 M194.508 256.808 C 194.508 257.701,194.578 258.066,194.664 257.619 C 194.750 257.173,194.750 256.443,194.664 255.996 C 194.578 255.550,194.508 255.915,194.508 256.808 M213.609 273.760 C 213.609 274.454,213.684 274.739,213.774 274.391 C 213.865 274.044,213.865 273.476,213.774 273.129 C 213.684 272.782,213.609 273.066,213.609 273.760 M194.868 277.728 C 194.868 278.620,194.939 278.986,195.025 278.539 C 195.111 278.093,195.111 277.362,195.025 276.916 C 194.939 276.470,194.868 276.835,194.868 277.728 M49.908 326.420 C 49.908 328.503,49.968 329.355,50.040 328.314 C 50.113 327.272,50.113 325.568,50.040 324.527 C 49.968 323.485,49.908 324.337,49.908 326.420 M39.809 330.027 C 39.809 332.110,39.868 332.962,39.941 331.921 C 40.014 330.879,40.014 329.175,39.941 328.133 C 39.868 327.092,39.809 327.944,39.809 330.027 M135.257 351.849 C 136.934 353.535,138.388 354.914,138.487 354.914 C 138.586 354.914,137.295 353.535,135.618 351.849 C 133.940 350.162,132.487 348.783,132.387 348.783 C 132.288 348.783,133.580 350.162,135.257 351.849 M296.108 360.775 C 296.992 361.718,297.763 362.489,297.821 362.489 C 298.092 362.489,297.805 362.165,296.213 360.670 L 294.500 359.062 296.108 360.775 M39.766 362.669 C 39.770 363.463,39.844 363.745,39.930 363.296 C 40.017 362.847,40.013 362.198,39.923 361.853 C 39.833 361.508,39.762 361.876,39.766 362.669 M42.836 366.711 C 43.284 366.798,43.933 366.794,44.278 366.704 C 44.623 366.614,44.256 366.543,43.463 366.547 C 42.669 366.551,42.387 366.625,42.836 366.711 " stroke="none" fill="#747474" fill-rule="evenodd"></path></g></svg>