<svg id="svg" version="1.1" xmlns="http://www.w3.org/2000/svg" xmlns:xlink="http://www.w3.org/1999/xlink" width="400" height="287.8361075544174" viewBox="0, 0, 400,287.8361075544174"><g id="svgg"><path id="path0" d="M212.944 15.914 L 198.360 22.602 171.843 28.200 C 157.259 31.279,145.096 33.803,144.814 33.809 C 144.533 33.816,136.985 32.078,128.041 29.948 L 111.780 26.074 97.498 32.666 L 83.216 39.258 59.982 69.113 L 36.748 98.968 34.047 125.764 L 31.346 152.560 32.670 172.744 L 33.995 192.928 29.574 202.092 C 27.143 207.132,23.345 214.557,21.133 218.591 L 17.111 225.928 17.824 231.743 L 18.537 237.559 16.905 241.308 L 15.274 245.058 12.401 247.895 L 9.528 250.732 9.352 254.879 C 9.255 257.161,9.214 259.641,9.261 260.392 L 9.347 261.758 17.926 266.594 C 22.644 269.254,26.677 271.434,26.889 271.439 C 27.377 271.451,41.526 266.333,41.869 266.020 C 42.035 265.870,42.092 262.444,42.033 256.375 L 41.940 246.963 45.710 238.910 C 48.991 231.904,50.219 228.866,55.158 215.527 L 60.835 200.196 67.323 197.268 C 70.891 195.658,73.841 194.375,73.877 194.417 C 73.914 194.460,74.310 198.816,74.758 204.097 L 75.573 213.700 73.996 239.431 C 73.093 254.165,72.512 265.309,72.637 265.507 C 72.900 265.924,94.327 274.264,95.135 274.264 C 95.914 274.264,116.524 268.983,116.786 268.716 C 116.902 268.598,117.292 265.679,117.652 262.228 C 118.012 258.777,118.365 255.604,118.437 255.177 C 118.551 254.502,117.664 252.968,111.662 243.464 L 104.755 232.528 104.371 217.480 C 104.160 209.204,103.954 200.981,103.914 199.207 L 103.841 195.981 112.420 185.813 L 120.999 175.645 129.706 175.746 L 138.412 175.847 156.946 167.418 C 167.140 162.782,175.569 159.084,175.678 159.200 C 175.786 159.316,177.454 161.416,179.384 163.867 L 182.892 168.322 177.998 211.498 L 173.103 254.673 169.335 258.292 L 165.566 261.911 166.162 268.536 C 166.547 272.807,166.875 275.281,167.085 275.502 C 167.324 275.752,172.370 276.225,185.987 277.272 L 204.563 278.701 210.156 273.888 C 213.232 271.241,215.849 268.868,215.972 268.615 C 216.170 268.207,210.019 255.549,209.212 254.703 C 209.087 254.572,206.329 254.707,202.664 255.024 C 199.181 255.325,196.287 255.528,196.234 255.474 C 196.180 255.421,201.655 241.793,208.400 225.192 C 215.146 208.590,222.036 191.408,223.712 187.009 C 225.389 182.611,226.833 179.038,226.921 179.071 C 227.009 179.103,231.626 184.100,237.181 190.176 L 247.280 201.222 256.636 221.682 L 265.991 242.142 266.178 255.192 C 266.299 263.548,266.462 268.358,266.632 268.563 C 267.244 269.301,280.367 276.568,281.081 276.564 C 282.354 276.558,308.091 271.525,308.392 271.224 C 308.603 271.013,308.564 268.842,308.242 262.969 L 307.806 255.001 298.704 245.766 L 289.603 236.531 289.735 235.231 C 289.808 234.516,289.932 230.935,290.011 227.273 L 290.155 220.615 282.327 200.896 L 274.499 181.178 272.732 167.862 C 271.760 160.538,269.976 146.306,268.768 136.236 C 267.560 126.165,266.515 117.638,266.446 117.286 C 266.358 116.837,268.140 118.504,272.405 122.858 C 275.751 126.275,278.604 129.066,278.745 129.059 C 279.871 129.007,292.702 118.847,292.702 118.008 C 292.702 117.374,291.116 106.894,290.764 105.209 L 290.622 104.527 296.464 106.426 C 299.676 107.471,304.264 108.962,306.658 109.740 L 311.012 111.155 314.810 115.501 C 319.121 120.433,318.594 120.180,322.257 119.075 C 325.492 118.100,324.934 118.030,329.743 120.010 L 333.877 121.712 337.948 133.293 L 342.019 144.873 337.916 157.190 L 333.813 169.507 330.512 170.287 C 324.937 171.604,325.593 171.706,323.813 169.244 C 322.969 168.078,322.187 166.973,322.075 166.789 C 321.963 166.606,322.220 164.328,322.648 161.729 C 323.464 156.763,323.457 156.276,322.571 156.092 C 319.647 155.486,313.345 155.173,312.930 155.613 C 312.261 156.323,304.676 167.546,304.552 168.009 C 304.443 168.422,317.242 191.546,318.058 192.409 C 318.489 192.865,318.969 192.876,329.738 192.665 L 340.969 192.446 352.130 176.312 L 363.290 160.179 366.635 148.399 L 369.980 136.620 375.632 136.620 L 381.285 136.620 386.033 131.391 C 392.475 124.298,392.626 124.754,383.611 124.096 C 380.301 123.854,377.266 123.595,376.866 123.519 C 376.230 123.398,377.007 122.885,383.076 119.419 C 392.935 113.789,392.999 113.912,379.888 113.287 L 370.409 112.836 366.652 102.449 L 362.895 92.061 347.490 62.740 C 339.017 46.613,331.895 33.228,331.663 32.994 C 331.432 32.761,325.822 28.767,319.198 24.119 L 307.154 15.669 276.432 16.535 C 259.535 17.011,244.846 17.404,243.790 17.407 L 241.869 17.412 235.211 13.325 C 231.549 11.076,228.323 9.235,228.041 9.232 C 227.759 9.229,220.966 12.236,212.944 15.914 M234.270 15.073 C 237.125 16.814,239.419 18.363,239.368 18.515 C 239.245 18.884,224.670 26.548,224.470 26.348 C 224.414 26.292,225.166 23.423,226.142 19.973 C 227.118 16.523,228.037 13.261,228.185 12.724 C 228.525 11.488,228.162 11.348,234.270 15.073 M226.358 12.868 C 226.226 13.326,225.300 16.581,224.300 20.102 C 223.299 23.624,222.407 26.578,222.316 26.668 C 222.130 26.853,202.650 23.478,202.388 23.216 C 202.158 22.986,201.159 23.470,214.213 17.479 C 227.305 11.470,226.693 11.702,226.358 12.868 M303.158 17.923 C 303.111 18.063,295.131 23.589,285.424 30.204 L 267.775 42.231 266.858 41.426 C 264.082 38.990,244.065 19.614,244.192 19.487 C 244.305 19.374,289.627 17.968,301.622 17.705 C 302.594 17.684,303.210 17.771,303.158 17.923 M310.110 39.691 C 312.274 51.380,313.967 61.023,313.871 61.118 C 313.730 61.259,287.173 65.353,284.717 65.612 C 283.978 65.691,268.595 43.969,269.067 43.514 C 269.469 43.126,305.834 18.438,306.003 18.438 C 306.098 18.438,307.946 28.002,310.110 39.691 M318.992 26.409 C 324.837 30.512,329.676 34.017,329.746 34.200 C 329.816 34.382,328.164 40.595,326.076 48.005 L 322.279 61.479 319.206 61.310 C 317.516 61.218,316.054 61.069,315.958 60.981 C 315.862 60.892,314.103 51.716,312.048 40.589 C 309.994 29.462,308.249 20.042,308.170 19.654 C 307.960 18.629,307.493 18.337,318.992 26.409 M252.117 29.834 C 257.844 35.327,263.296 40.529,264.235 41.394 C 265.173 42.259,265.861 43.050,265.762 43.151 C 265.029 43.911,239.802 54.454,239.630 54.073 C 239.182 53.076,232.535 24.470,232.712 24.301 C 233.146 23.885,241.123 19.752,241.404 19.797 C 241.570 19.824,246.391 24.341,252.117 29.834 M210.435 26.540 C 215.964 27.495,220.487 28.353,220.487 28.447 C 220.487 28.657,194.486 42.254,194.085 42.254 C 193.928 42.254,193.869 42.073,193.953 41.852 C 194.038 41.632,195.273 37.742,196.698 33.210 C 199.616 23.925,199.387 24.522,199.958 24.684 C 200.192 24.750,204.907 25.585,210.435 26.540 M197.341 25.288 C 196.825 27.038,191.734 43.166,191.678 43.227 C 191.599 43.314,150.250 35.305,150.085 35.171 C 149.749 34.895,152.382 34.294,173.567 29.804 C 199.527 24.302,197.520 24.683,197.341 25.288 M232.113 30.282 C 236.322 47.923,237.847 54.425,237.791 54.483 C 237.629 54.647,195.268 44.132,195.307 43.937 C 195.357 43.693,230.169 25.402,230.641 25.371 C 230.818 25.360,231.411 27.340,232.113 30.282 M119.804 41.006 C 124.217 47.913,127.765 53.627,127.687 53.704 C 127.420 53.971,87.196 40.285,87.196 39.928 C 87.196 39.627,110.845 28.475,111.524 28.455 C 111.665 28.451,115.391 34.099,119.804 41.006 M128.317 32.010 C 135.982 33.841,142.445 35.426,142.680 35.531 C 143.149 35.743,130.734 53.827,130.218 53.683 C 129.951 53.609,114.213 29.213,114.213 28.874 C 114.213 28.617,112.742 28.290,128.317 32.010 M168.459 40.566 C 181.040 43.019,191.400 45.092,191.482 45.173 C 191.632 45.324,199.251 77.664,199.156 77.747 C 199.127 77.772,193.803 76.020,187.324 73.854 C 148.384 60.834,131.882 55.221,131.882 54.995 C 131.882 54.854,132.382 54.032,132.992 53.170 C 133.602 52.307,136.548 48.115,139.538 43.854 C 142.528 39.593,145.112 36.108,145.279 36.108 C 145.447 36.108,155.878 38.114,168.459 40.566 M339.419 51.665 C 356.698 84.518,358.834 88.627,358.700 88.760 C 358.587 88.873,325.373 63.427,324.242 62.360 C 323.959 62.094,324.434 60.151,327.008 51.057 C 330.995 36.974,331.100 36.620,331.321 36.620 C 331.423 36.620,335.067 43.390,339.419 51.665 M105.472 69.270 C 126.149 95.905,126.725 96.676,126.048 96.844 C 125.665 96.939,108.067 97.316,86.940 97.681 C 65.813 98.046,46.586 98.417,44.212 98.505 C 40.476 98.643,39.909 98.614,39.987 98.285 C 40.115 97.743,83.784 41.712,84.011 41.798 C 84.114 41.837,93.772 54.200,105.472 69.270 M142.111 60.532 C 172.032 70.571,196.549 78.891,196.592 79.021 C 196.650 79.195,130.596 96.473,129.223 96.643 C 128.970 96.674,87.068 42.835,87.068 42.479 C 87.068 42.067,87.397 42.175,142.111 60.532 M274.128 54.428 C 281.258 64.749,281.449 65.048,280.885 65.039 C 280.021 65.024,242.476 55.673,242.478 55.472 C 242.480 55.287,266.584 44.637,267.138 44.577 C 267.232 44.567,270.378 48.999,274.128 54.428 M237.260 56.211 C 275.930 65.656,278.670 66.358,278.302 66.726 C 278.070 66.958,224.495 77.527,224.200 77.400 C 223.799 77.227,195.822 46.779,195.693 46.376 C 195.614 46.130,195.729 46.056,196.060 46.141 C 196.326 46.209,214.866 50.741,237.260 56.211 M209.633 64.448 C 217.926 73.416,228.716 85.083,233.609 90.376 C 242.233 99.704,242.820 100.384,242.238 100.384 C 241.875 100.384,201.746 78.930,201.376 78.538 C 201.217 78.370,199.572 71.722,197.720 63.764 C 195.868 55.807,194.284 49.036,194.201 48.720 C 193.878 47.484,195.027 48.656,209.633 64.448 M314.131 64.597 C 314.047 65.477,313.777 70.259,313.531 75.224 C 313.285 80.189,313.014 84.251,312.930 84.251 C 312.650 84.251,286.685 67.588,286.604 67.356 C 286.561 67.232,287.022 67.055,287.629 66.963 C 288.236 66.871,294.264 65.954,301.024 64.923 C 307.785 63.893,313.534 63.038,313.800 63.023 C 314.240 62.999,314.270 63.139,314.131 64.597 M328.937 68.251 C 348.704 83.470,358.652 91.203,358.721 91.405 C 358.763 91.530,358.360 91.585,357.824 91.526 C 357.289 91.468,347.689 90.955,336.492 90.386 C 312.196 89.152,314.508 89.401,314.625 88.023 C 314.676 87.427,314.955 81.927,315.245 75.800 C 315.535 69.673,315.832 64.278,315.904 63.810 L 316.035 62.959 319.285 63.140 L 322.535 63.322 328.937 68.251 M280.666 68.334 C 280.666 68.579,248.240 103.050,247.948 103.115 C 247.730 103.164,226.166 79.802,225.978 79.313 C 225.885 79.070,232.783 77.611,253.068 73.581 C 284.590 67.320,280.666 68.066,280.666 68.334 M298.848 77.422 L 312.548 86.194 312.676 94.714 L 312.804 103.234 329.449 111.658 L 346.095 120.082 346.051 120.917 C 345.947 122.889,343.000 140.581,342.787 140.510 C 342.658 140.467,340.978 135.971,339.055 130.517 C 337.131 125.064,335.439 120.484,335.294 120.339 C 334.884 119.929,325.933 116.261,325.354 116.266 C 325.071 116.268,323.688 116.612,322.279 117.029 C 320.871 117.447,319.655 117.791,319.577 117.793 C 319.500 117.796,317.793 115.918,315.784 113.621 L 312.132 109.445 301.200 105.901 C 295.188 103.952,290.235 102.331,290.193 102.298 C 290.151 102.265,288.972 94.935,287.574 86.010 C 286.176 77.085,284.987 69.523,284.933 69.206 C 284.791 68.381,283.955 67.887,298.848 77.422 M285.638 84.955 C 287.023 93.793,288.716 104.539,289.400 108.835 C 290.084 113.131,290.645 116.899,290.648 117.210 C 290.652 117.647,289.332 118.791,284.827 122.255 L 279.001 126.735 272.471 120.043 C 268.880 116.362,265.826 113.249,265.685 113.124 C 265.544 113.000,261.922 111.028,257.636 108.743 C 253.350 106.457,249.801 104.460,249.749 104.305 C 249.658 104.032,282.602 68.886,282.948 68.886 C 283.043 68.886,284.253 76.117,285.638 84.955 M199.141 81.370 C 198.503 85.295,183.603 165.266,183.489 165.380 C 183.272 165.597,130.367 98.847,130.350 98.335 C 130.346 98.226,198.434 80.486,199.072 80.429 C 199.196 80.419,199.227 80.842,199.141 81.370 M224.442 93.009 C 236.844 99.645,248.206 105.718,249.692 106.506 C 260.637 112.311,262.992 113.593,262.994 113.744 C 262.996 113.932,186.467 165.331,185.808 165.584 C 185.586 165.670,185.403 165.620,185.403 165.473 C 185.403 165.245,200.508 83.380,200.925 81.352 C 201.115 80.425,198.483 79.120,224.442 93.009 M338.476 92.238 C 350.061 92.842,359.539 93.403,359.539 93.485 C 359.539 93.623,351.413 101.265,349.216 103.193 C 348.326 103.974,329.393 108.066,326.665 108.066 C 326.401 108.067,323.549 106.724,320.327 105.083 L 314.469 102.100 314.469 96.472 L 314.469 90.843 315.941 90.992 C 316.751 91.073,326.892 91.634,338.476 92.238 M365.024 103.673 C 366.816 108.651,368.238 112.770,368.182 112.825 C 367.822 113.185,358.899 112.391,358.407 111.955 C 358.114 111.696,356.170 110.010,354.086 108.209 C 352.002 106.408,350.331 104.833,350.373 104.708 C 350.522 104.260,361.462 94.267,361.612 94.443 C 361.696 94.541,363.231 98.695,365.024 103.673 M126.948 98.912 C 126.725 99.489,85.765 171.441,85.518 171.689 C 85.367 171.841,85.141 171.746,84.913 171.433 C 83.890 170.035,39.407 100.403,39.508 100.359 C 39.558 100.337,119.641 98.712,124.931 98.626 C 126.549 98.600,127.041 98.670,126.948 98.912 M151.650 128.315 C 164.087 144.100,174.289 157.093,174.319 157.189 C 174.350 157.284,166.168 161.091,156.137 165.648 L 137.900 173.934 114.597 173.519 C 101.780 173.290,90.334 173.105,89.162 173.108 C 87.533 173.110,87.050 173.032,87.113 172.776 C 87.271 172.136,128.620 99.616,128.827 99.616 C 128.941 99.616,139.212 112.531,151.650 128.315 M48.199 118.182 C 53.191 126.351,59.708 137.010,62.681 141.869 C 65.654 146.729,68.159 150.896,68.249 151.129 C 68.389 151.498,34.413 152.045,33.531 151.688 C 33.427 151.646,38.196 103.511,38.385 102.698 C 38.467 102.343,39.911 104.621,48.199 118.182 M353.416 109.987 C 357.786 113.733,358.449 114.213,359.262 114.218 C 361.711 114.231,384.971 115.488,385.097 115.613 C 385.443 115.959,372.770 123.176,371.818 123.175 C 371.473 123.175,365.890 122.206,359.411 121.023 L 347.631 118.871 338.924 114.464 C 329.997 109.945,329.618 109.734,329.910 109.441 C 330.035 109.317,347.075 105.929,348.315 105.782 C 348.410 105.771,350.705 107.663,353.416 109.987 M264.386 116.453 C 264.470 116.981,265.457 125.077,266.578 134.443 C 267.698 143.809,268.675 151.798,268.748 152.195 C 268.846 152.727,268.786 152.896,268.523 152.835 C 267.744 152.656,234.326 135.582,234.385 135.394 C 234.475 135.113,263.569 115.537,263.934 115.513 C 264.098 115.502,264.301 115.925,264.386 116.453 M359.979 122.874 C 365.925 123.969,370.870 124.946,370.969 125.045 C 371.159 125.235,370.605 127.280,365.580 144.933 C 362.403 156.092,362.123 156.845,361.643 155.517 C 361.500 155.124,358.549 147.268,355.084 138.061 C 351.619 128.853,348.784 121.219,348.784 121.095 C 348.784 120.789,347.952 120.657,359.979 122.874 M354.540 141.586 C 358.913 153.233,361.020 159.159,360.831 159.276 C 360.072 159.745,336.439 168.791,336.310 168.662 C 336.228 168.580,337.954 163.181,340.145 156.664 L 344.129 144.814 345.708 134.699 C 347.422 123.715,347.456 123.533,347.760 123.854 C 347.873 123.974,350.924 131.953,354.540 141.586 M379.898 125.734 C 383.278 126.011,386.418 126.241,386.876 126.244 C 388.058 126.250,388.083 126.212,383.952 130.730 L 380.205 134.827 376.978 134.756 C 372.705 134.661,370.551 134.444,370.551 134.110 C 370.551 133.054,373.033 125.225,373.367 125.227 C 373.579 125.228,376.517 125.456,379.898 125.734 M250.358 145.686 C 259.765 150.461,267.492 154.466,267.530 154.585 C 267.602 154.814,227.885 175.218,227.709 175.042 C 227.509 174.841,232.920 137.004,233.150 137.004 C 233.208 137.004,240.951 140.911,250.358 145.686 M231.076 138.092 C 231.024 138.409,229.828 146.850,228.419 156.850 C 225.370 178.493,225.954 175.741,222.529 184.628 C 219.734 191.881,219.572 192.256,219.335 192.020 C 219.145 191.830,209.458 152.044,209.574 151.929 C 209.824 151.679,230.876 137.539,231.014 137.528 C 231.101 137.522,231.128 137.775,231.076 138.092 M68.886 153.519 C 68.886 154.032,59.383 198.046,59.238 198.201 C 58.926 198.537,35.851 192.502,35.851 192.084 C 35.851 191.848,35.337 183.766,34.707 174.124 C 34.078 164.483,33.531 155.903,33.491 155.058 L 33.419 153.521 47.759 153.390 C 55.647 153.318,63.627 153.231,65.493 153.198 C 68.358 153.146,68.886 153.196,68.886 153.519 M208.042 153.585 C 208.556 155.250,217.643 192.941,217.553 193.032 C 217.422 193.163,185.653 168.227,185.672 168.008 C 185.686 167.843,207.459 153.181,207.729 153.154 C 207.825 153.145,207.966 153.339,208.042 153.585 M77.507 164.279 C 81.146 169.421,84.154 173.771,84.193 173.946 C 84.231 174.121,82.676 177.946,80.736 182.447 L 77.209 190.629 69.328 194.199 C 64.994 196.162,61.399 197.720,61.341 197.662 C 61.282 197.603,63.301 187.993,65.827 176.306 C 68.353 164.620,70.420 155.029,70.421 154.994 C 70.434 154.441,71.956 156.435,77.507 164.279 M270.819 168.181 C 271.696 174.766,272.340 180.220,272.250 180.300 C 271.960 180.561,230.205 176.350,230.299 176.069 C 230.395 175.780,268.951 155.960,269.120 156.112 C 269.178 156.165,269.943 161.596,270.819 168.181 M319.462 157.705 C 320.837 157.839,321.243 157.968,321.206 158.261 C 321.179 158.471,320.851 160.563,320.478 162.911 L 319.798 167.179 322.120 170.254 C 324.975 174.034,324.237 173.734,328.371 172.794 C 330.299 172.355,331.942 172.062,332.022 172.142 C 332.195 172.314,319.851 188.988,319.550 188.988 C 319.248 188.988,319.262 189.078,317.027 173.239 C 315.894 165.211,314.902 158.319,314.822 157.923 L 314.677 157.204 316.173 157.367 C 316.996 157.457,318.476 157.609,319.462 157.705 M315.236 172.820 C 316.957 185.003,317.093 186.352,316.536 185.770 C 316.167 185.385,306.786 168.559,306.786 168.282 C 306.786 168.040,307.775 166.540,311.356 161.348 C 313.429 158.345,313.020 157.138,315.236 172.820 M359.496 162.088 C 359.159 163.053,339.855 190.546,339.437 190.658 C 339.155 190.734,334.826 190.764,329.818 190.724 L 320.711 190.653 327.938 180.922 L 335.166 171.191 347.032 166.546 C 358.893 161.904,359.656 161.631,359.496 162.088 M200.708 182.221 C 209.403 189.062,216.546 194.738,216.582 194.835 C 216.640 194.993,181.802 197.698,181.608 197.550 C 181.562 197.516,182.226 191.340,183.082 183.827 C 183.938 176.314,184.638 170.080,184.637 169.974 C 184.633 169.586,185.183 170.006,200.708 182.221 M102.689 175.052 C 110.365 175.144,117.077 175.292,117.604 175.381 L 118.562 175.544 110.305 185.263 L 102.049 194.982 89.920 203.381 C 79.015 210.932,77.337 212.039,77.337 211.676 C 77.337 211.620,76.991 207.557,76.569 202.650 C 76.146 197.742,75.800 193.596,75.800 193.437 C 75.800 193.279,76.359 192.909,77.041 192.615 C 78.686 191.907,78.358 192.488,82.203 183.483 C 84.067 179.117,85.704 175.331,85.841 175.069 C 86.051 174.669,86.296 174.617,87.411 174.740 C 88.138 174.819,95.013 174.960,102.689 175.052 M250.007 179.995 C 268.518 181.815,271.010 182.108,270.657 182.427 C 269.994 183.025,248.480 199.230,248.348 199.231 C 248.071 199.232,229.193 178.552,229.193 178.247 C 229.193 177.909,226.437 177.677,250.007 179.995 M280.663 202.067 L 288.170 221.035 288.130 224.410 C 288.068 229.639,287.785 234.827,287.562 234.827 C 287.070 234.827,249.657 200.689,249.892 200.453 C 250.582 199.764,272.638 183.122,272.877 183.111 C 273.030 183.104,276.534 191.634,280.663 202.067 M47.839 197.291 C 53.658 198.752,58.483 200.011,58.563 200.091 C 58.812 200.340,49.260 225.992,48.917 225.992 C 48.685 225.992,36.620 195.287,36.620 194.696 C 36.620 194.503,37.973 194.816,47.839 197.291 M40.974 210.951 C 46.439 225.232,46.923 226.688,45.904 225.818 C 45.657 225.607,41.421 222.287,36.492 218.440 C 31.562 214.593,27.488 211.412,27.438 211.372 C 27.360 211.309,29.099 207.627,33.876 197.746 C 34.441 196.577,34.984 195.713,35.083 195.826 C 35.182 195.938,37.832 202.745,40.974 210.951 M217.575 197.247 C 217.224 198.588,194.903 253.129,194.674 253.205 C 194.535 253.251,194.117 251.987,193.745 250.396 C 193.373 248.805,190.499 236.729,187.357 223.560 C 184.216 210.391,181.714 199.544,181.796 199.456 C 181.920 199.324,214.091 196.797,216.865 196.701 C 217.636 196.674,217.710 196.730,217.575 197.247 M101.926 198.271 C 101.929 198.729,102.099 205.211,102.304 212.676 C 102.774 229.782,102.778 230.733,102.369 230.717 C 101.975 230.701,78.542 214.006,78.455 213.679 C 78.395 213.454,101.334 197.451,101.729 197.443 C 101.834 197.441,101.923 197.814,101.926 198.271 M187.314 230.813 C 190.655 244.873,193.349 256.411,193.301 256.453 C 192.733 256.949,168.903 272.983,168.734 272.983 C 168.606 272.983,168.495 272.782,168.486 272.535 C 168.478 272.289,168.260 270.013,168.003 267.478 L 167.536 262.868 171.230 259.283 L 174.924 255.698 177.738 230.730 C 180.728 204.195,180.718 204.272,181.037 204.869 C 181.148 205.078,183.973 216.753,187.314 230.813 M269.617 221.143 C 279.356 229.955,287.324 237.244,287.324 237.342 C 287.324 237.655,268.739 264.368,268.456 264.463 C 268.269 264.525,268.146 260.994,268.062 253.083 L 267.940 241.613 259.706 223.619 C 251.577 205.852,251.260 205.122,251.691 205.122 C 251.812 205.122,259.878 212.331,269.617 221.143 M36.750 220.884 C 42.242 225.187,46.735 228.783,46.735 228.875 C 46.735 229.130,20.637 236.620,20.461 236.415 C 20.046 235.935,19.149 226.578,19.452 225.906 C 20.145 224.372,26.433 213.060,26.593 213.060 C 26.688 213.060,31.258 216.581,36.750 220.884 M89.965 224.217 C 96.611 228.944,102.080 232.899,102.119 233.006 C 102.182 233.180,99.611 235.958,88.224 248.015 C 86.228 250.128,82.478 254.104,79.889 256.850 C 74.363 262.714,74.441 262.664,74.648 260.136 C 74.820 258.039,77.337 216.790,77.337 216.075 C 77.337 215.261,77.747 215.525,89.965 224.217 M43.671 238.555 L 40.213 245.967 40.209 254.609 C 40.207 259.363,40.142 263.252,40.065 263.252 C 39.988 263.252,34.804 259.276,28.545 254.416 L 17.166 245.579 17.820 244.108 C 18.179 243.299,18.882 241.702,19.381 240.558 L 20.288 238.479 33.639 234.634 C 40.983 232.520,47.022 230.869,47.060 230.966 C 47.098 231.063,45.572 234.478,43.671 238.555 M110.153 244.787 L 116.509 254.846 115.902 260.472 C 115.567 263.566,115.247 266.144,115.190 266.202 C 115.029 266.362,90.013 249.217,90.013 248.946 C 90.013 248.570,103.281 234.555,103.552 234.645 C 103.687 234.690,106.657 239.254,110.153 244.787 M297.487 247.375 L 305.946 255.954 306.320 262.740 C 306.526 266.472,306.628 269.604,306.548 269.698 C 306.468 269.793,300.710 270.957,293.752 272.285 L 281.103 274.700 274.867 271.133 L 268.631 267.567 270.185 265.346 C 271.040 264.124,275.551 257.618,280.210 250.888 C 284.870 244.158,288.760 238.684,288.855 238.724 C 288.950 238.764,292.834 242.657,297.487 247.375 M27.821 256.084 C 38.372 264.267,39.146 264.920,38.608 265.187 C 38.289 265.346,35.551 266.365,32.522 267.453 L 27.017 269.430 19.097 264.968 L 11.177 260.505 11.238 256.181 L 11.298 251.857 13.648 249.487 C 14.940 248.183,16.100 247.151,16.226 247.193 C 16.352 247.235,21.570 251.236,27.821 256.084 M101.014 258.835 C 107.762 263.448,113.319 267.337,113.363 267.478 C 113.406 267.618,109.322 268.779,104.288 270.057 L 95.134 272.381 85.211 268.533 C 79.754 266.417,75.288 264.601,75.288 264.497 C 75.288 264.246,88.322 250.448,88.559 250.448 C 88.660 250.448,94.265 254.222,101.014 258.835 M210.948 262.213 C 212.532 265.297,213.828 267.876,213.828 267.945 C 213.828 268.268,204.519 276.066,204.352 275.882 C 203.891 275.376,195.860 257.832,196.018 257.674 C 196.198 257.493,204.521 256.691,206.786 256.636 L 208.067 256.605 210.948 262.213 M198.400 267.448 C 200.699 272.360,202.529 276.430,202.466 276.492 C 202.403 276.555,195.514 276.079,187.155 275.434 C 178.797 274.789,171.690 274.262,171.362 274.262 C 171.033 274.263,170.802 274.152,170.849 274.016 C 170.995 273.593,193.448 258.409,193.845 258.465 C 194.068 258.497,195.917 262.143,198.400 267.448 " stroke="none" fill="#070707" fill-rule="evenodd"></path><path id="path1" d="M226.477 19.080 C 225.335 23.093,224.439 26.376,224.486 26.376 C 224.736 26.376,239.436 18.597,239.434 18.466 C 239.432 18.332,229.224 12.017,228.732 11.845 C 228.633 11.811,227.619 15.067,226.477 19.080 M214.981 17.250 C 208.784 20.089,203.381 22.559,202.976 22.739 C 202.570 22.919,202.283 23.111,202.337 23.165 C 202.605 23.433,222.087 26.667,222.258 26.473 C 222.494 26.205,226.461 12.289,226.335 12.171 C 226.288 12.126,221.178 14.411,214.981 17.250 M269.910 18.703 C 256.460 19.092,245.148 19.452,244.772 19.501 C 243.995 19.603,266.983 41.890,267.823 41.849 C 268.055 41.837,275.679 36.759,284.763 30.565 C 293.848 24.370,301.739 18.992,302.300 18.614 L 303.320 17.926 298.843 17.960 C 296.381 17.978,283.361 18.313,269.910 18.703 M289.373 29.739 C 280.288 35.926,271.976 41.593,270.901 42.333 L 268.948 43.678 276.352 54.425 C 280.424 60.336,283.896 65.268,284.067 65.385 C 284.319 65.556,313.645 61.344,313.888 61.102 C 313.986 61.003,306.153 18.743,306.011 18.606 C 305.944 18.542,298.457 23.551,289.373 29.739 M308.453 20.671 C 308.635 21.626,310.366 30.992,312.299 41.485 C 314.233 51.978,315.907 60.665,316.020 60.788 C 316.221 61.010,321.927 61.497,322.125 61.309 C 322.227 61.213,329.814 34.589,329.827 34.283 C 329.832 34.153,311.224 20.960,308.821 19.391 L 308.123 18.936 308.453 20.671 M236.958 22.072 C 234.479 23.373,232.604 24.509,232.661 24.674 C 232.718 24.836,234.316 31.520,236.212 39.527 C 238.109 47.535,239.720 54.146,239.793 54.219 C 239.894 54.320,265.388 43.447,265.760 43.145 C 265.831 43.088,242.943 21.103,241.861 20.189 C 241.382 19.785,241.143 19.877,236.958 22.072 M173.880 29.847 C 160.992 32.579,150.333 34.825,150.192 34.838 C 149.273 34.923,186.890 42.488,191.273 43.099 C 191.536 43.136,192.190 41.396,193.613 36.876 C 196.712 27.031,197.394 24.839,197.351 24.859 C 197.329 24.870,186.767 27.114,173.880 29.847 M199.407 25.032 C 199.149 25.476,194.102 41.844,194.167 42.025 C 194.206 42.134,200.135 39.147,207.343 35.388 C 216.495 30.615,220.319 28.499,220.019 28.373 C 218.748 27.839,199.580 24.733,199.407 25.032 M212.876 34.646 C 200.332 41.207,195.279 43.971,195.590 44.099 C 196.528 44.485,237.407 54.356,237.535 54.227 C 237.693 54.070,230.922 25.350,230.730 25.364 C 230.659 25.369,222.625 29.546,212.876 34.646 M99.296 34.115 C 92.570 37.217,87.068 39.840,87.068 39.945 C 87.068 40.126,127.564 53.827,127.699 53.692 C 127.767 53.625,111.990 28.933,111.694 28.642 C 111.600 28.551,106.021 31.014,99.296 34.115 M114.213 28.820 C 114.213 28.937,129.846 53.349,130.084 53.604 C 130.192 53.720,133.127 49.762,136.606 44.809 C 140.084 39.855,142.878 35.750,142.814 35.687 C 142.750 35.623,136.952 34.196,129.928 32.516 C 122.904 30.836,116.495 29.299,115.685 29.100 C 114.875 28.901,114.213 28.775,114.213 28.820 M138.592 45.330 C 135.028 50.412,132.061 54.709,131.997 54.878 C 131.883 55.182,198.656 77.742,198.912 77.485 C 199.006 77.392,191.602 45.275,191.462 45.167 C 191.440 45.149,181.223 43.153,168.758 40.730 C 156.293 38.307,145.864 36.272,145.583 36.207 C 145.156 36.110,143.984 37.641,138.592 45.330 M327.603 49.341 L 323.996 62.067 324.664 62.596 C 329.125 66.126,358.645 88.815,358.703 88.758 C 358.796 88.665,331.716 37.119,331.418 36.821 C 331.304 36.707,329.588 42.341,327.603 49.341 M61.919 69.978 L 39.971 98.207 43.097 98.278 C 46.949 98.366,126.274 96.859,126.438 96.695 C 126.539 96.594,85.786 43.913,84.379 42.327 L 83.867 41.749 61.919 69.978 M87.111 42.496 C 87.250 42.892,128.842 96.408,129.079 96.496 C 129.492 96.650,196.816 79.189,196.609 78.982 C 196.192 78.565,86.999 42.180,87.111 42.496 M254.754 50.032 C 247.897 53.002,242.325 55.470,242.371 55.516 C 242.534 55.680,281.011 65.041,281.111 64.942 C 281.192 64.860,270.471 49.142,267.887 45.555 L 267.222 44.632 254.754 50.032 M195.690 46.353 C 195.849 46.829,224.147 77.337,224.431 77.338 C 224.851 77.340,278.216 66.785,278.340 66.675 C 278.590 66.455,277.344 66.130,259.782 61.837 C 249.648 59.361,238.073 56.529,234.059 55.545 C 230.045 54.560,219.904 52.084,211.524 50.041 C 203.143 47.998,196.133 46.274,195.945 46.210 C 195.757 46.147,195.643 46.211,195.690 46.353 M194.231 48.442 C 194.297 48.630,195.909 55.459,197.812 63.619 C 199.715 71.778,201.418 78.546,201.597 78.659 C 203.204 79.677,242.314 100.409,242.423 100.300 C 242.502 100.221,237.742 94.948,231.847 88.581 C 225.951 82.215,215.156 70.541,207.859 62.639 C 195.297 49.034,193.940 47.621,194.231 48.442 M315.924 65.237 C 315.527 70.972,314.660 88.881,314.773 88.994 C 314.879 89.100,356.394 91.419,358.218 91.421 C 358.633 91.421,353.241 87.114,340.738 77.458 L 322.658 63.495 319.524 63.252 C 317.800 63.117,316.319 63.005,316.234 63.002 C 316.149 62.999,316.009 64.004,315.924 65.237 M299.432 65.260 C 290.709 66.584,286.656 67.296,286.832 67.473 C 287.213 67.855,312.790 84.193,312.884 84.115 C 312.987 84.030,313.940 66.673,313.950 64.725 L 313.956 63.252 313.124 63.280 C 312.666 63.296,306.505 64.187,299.432 65.260 M252.820 73.734 C 238.139 76.651,226.073 79.091,226.008 79.156 C 225.876 79.289,247.496 102.772,247.862 102.894 C 247.990 102.936,254.748 95.907,262.881 87.273 C 271.014 78.639,278.368 70.855,279.223 69.974 C 281.212 67.929,284.113 67.516,252.820 73.734 M266.325 86.450 C 257.241 96.092,249.775 104.077,249.735 104.194 C 249.695 104.310,253.204 106.292,257.532 108.597 L 265.401 112.787 272.223 119.693 L 279.045 126.599 284.657 122.290 C 287.744 119.920,290.360 117.901,290.471 117.803 C 290.667 117.629,283.376 70.213,283.020 69.351 C 282.883 69.018,279.051 72.943,266.325 86.450 M285.019 69.034 C 285.019 69.411,290.158 101.831,290.262 102.113 C 290.327 102.289,290.511 102.433,290.670 102.433 C 290.828 102.433,295.723 103.993,301.547 105.901 L 312.135 109.369 315.751 113.455 C 317.740 115.703,319.544 117.542,319.760 117.542 C 319.977 117.542,321.347 117.194,322.805 116.769 L 325.456 115.997 330.375 118.039 C 333.080 119.163,335.373 120.173,335.471 120.284 C 335.610 120.442,340.181 133.282,342.317 139.515 C 342.525 140.121,342.750 140.562,342.816 140.496 C 343.027 140.285,346.162 120.234,345.997 120.153 C 345.910 120.110,338.406 116.308,329.321 111.702 L 312.804 103.329 312.737 94.845 L 312.669 86.360 298.986 77.623 C 285.685 69.130,285.019 68.721,285.019 69.034 M164.993 89.354 C 146.232 94.224,130.807 98.286,130.716 98.382 C 130.561 98.546,182.918 165.223,183.315 165.367 C 183.469 165.424,199.306 80.608,199.156 80.529 C 199.127 80.514,183.754 84.485,164.993 89.354 M193.298 123.111 C 188.979 146.456,185.486 165.597,185.535 165.646 C 185.584 165.695,195.225 159.289,206.961 151.411 C 218.696 143.533,234.462 132.954,241.997 127.903 C 264.400 112.886,263.126 113.788,262.436 113.416 C 261.238 112.771,201.171 80.666,201.161 80.666 C 201.155 80.666,197.617 99.766,193.298 123.111 M314.469 96.609 L 314.469 102.054 320.498 105.065 L 326.527 108.076 337.434 106.006 L 348.341 103.936 353.909 98.767 C 356.971 95.924,359.447 93.564,359.411 93.522 C 359.326 93.425,317.612 91.173,315.813 91.169 L 314.469 91.165 314.469 96.609 M355.785 99.568 C 352.805 102.341,350.357 104.669,350.344 104.742 C 350.331 104.816,352.250 106.544,354.609 108.584 L 358.899 112.292 361.332 112.458 C 364.965 112.707,367.990 112.705,367.990 112.454 C 367.990 111.951,361.630 94.637,361.425 94.584 C 361.303 94.552,358.765 96.795,355.785 99.568 M77.102 99.651 C 56.620 100.054,39.814 100.433,39.755 100.493 C 39.643 100.605,84.570 170.945,85.119 171.516 C 85.386 171.794,126.761 99.746,126.761 99.004 C 126.761 98.744,116.095 98.883,77.102 99.651 M107.915 136.180 L 87.149 172.727 88.709 172.885 C 89.567 172.972,95.570 173.118,102.049 173.209 C 117.695 173.429,126.868 173.595,132.810 173.767 L 137.706 173.908 155.917 165.635 C 165.933 161.085,174.129 157.280,174.132 157.179 C 174.137 156.949,129.106 99.765,128.860 99.688 C 128.762 99.658,119.336 116.079,107.915 136.180 M38.309 103.889 C 38.111 105.449,33.547 150.888,33.547 151.297 C 33.547 151.629,50.710 151.674,62.255 151.374 L 68.299 151.216 53.535 127.089 C 36.619 99.446,38.507 102.322,38.309 103.889 M342.894 106.910 C 340.570 107.369,336.681 108.120,334.251 108.579 C 331.821 109.039,329.834 109.498,329.834 109.599 C 329.834 109.700,333.838 111.805,338.732 114.275 L 347.631 118.766 359.924 121.009 L 372.216 123.251 378.679 119.564 C 385.555 115.641,385.747 115.496,384.059 115.488 C 383.460 115.485,377.408 115.203,370.609 114.861 L 358.247 114.239 353.451 110.129 C 347.910 105.380,348.985 105.708,342.894 106.910 M249.123 125.424 C 241.000 130.878,234.432 135.415,234.527 135.509 C 234.975 135.949,268.512 152.812,268.578 152.630 C 268.620 152.516,267.669 144.276,266.466 134.319 C 265.262 124.362,264.277 116.053,264.277 115.854 C 264.277 115.249,264.340 115.209,249.123 125.424 M348.834 121.161 C 353.246 133.258,362.056 156.340,362.204 156.189 C 362.379 156.010,371.099 125.175,371.002 125.078 C 370.952 125.028,366.134 124.114,360.296 123.046 C 354.457 121.979,349.461 121.039,349.193 120.958 C 348.852 120.856,348.744 120.917,348.834 121.161 M347.504 123.837 C 347.504 123.966,346.741 128.854,345.809 134.699 L 344.114 145.327 340.180 156.962 C 338.017 163.362,336.279 168.630,336.318 168.670 C 336.357 168.709,341.742 166.658,348.284 164.112 C 354.826 161.566,360.373 159.409,360.609 159.319 C 360.979 159.178,360.112 156.692,354.401 141.508 C 348.177 124.964,347.503 123.236,347.504 123.837 M372.983 125.555 C 372.605 126.674,370.547 134.268,370.606 134.324 C 370.646 134.362,372.810 134.476,375.416 134.576 L 380.154 134.758 383.832 130.746 C 385.854 128.538,387.440 126.664,387.356 126.579 C 387.271 126.494,384.579 126.219,381.373 125.967 C 378.167 125.716,374.991 125.450,374.316 125.377 C 373.482 125.288,373.054 125.345,372.983 125.555 M233.034 137.192 C 233.033 137.300,231.833 145.858,230.367 156.210 C 228.901 166.562,227.720 175.044,227.743 175.058 C 227.766 175.072,235.736 171.005,245.455 166.019 C 255.173 161.033,264.151 156.430,265.406 155.790 L 267.687 154.627 263.613 152.524 C 252.120 146.589,233.034 137.020,233.034 137.192 M220.359 144.707 C 214.725 148.503,210.012 151.763,209.885 151.950 C 209.664 152.277,219.164 192.063,219.462 192.060 C 219.595 192.059,225.082 177.894,225.411 176.703 C 225.565 176.142,230.986 138.453,230.986 137.938 C 230.986 137.573,230.232 138.054,220.359 144.707 M196.713 160.606 C 190.613 164.694,185.660 168.067,185.705 168.103 C 185.750 168.138,192.817 173.692,201.409 180.444 C 219.465 194.634,217.693 193.325,217.406 192.256 C 217.282 191.797,215.091 182.836,212.536 172.343 C 209.982 161.850,207.872 153.244,207.848 153.219 C 207.824 153.194,202.813 156.518,196.713 160.606 M37.708 153.585 L 33.547 153.662 33.559 154.744 C 33.583 156.800,35.990 192.285,36.113 192.390 C 36.421 192.655,59.044 198.158,59.178 198.001 C 59.262 197.903,61.431 188.028,63.999 176.056 C 66.567 164.085,68.725 154.088,68.794 153.841 C 68.920 153.397,54.336 153.276,37.708 153.585 M65.978 176.060 C 63.471 187.682,61.457 197.285,61.504 197.401 C 61.550 197.517,65.102 196.011,69.398 194.055 L 77.209 190.499 80.666 182.403 C 82.567 177.950,84.109 174.164,84.091 173.988 C 84.056 173.638,70.890 154.945,70.672 154.936 C 70.598 154.932,68.486 164.438,65.978 176.060 M249.424 166.142 C 230.368 175.909,230.104 176.054,231.114 176.248 C 232.761 176.564,271.998 180.328,272.142 180.184 C 272.390 179.936,269.200 156.202,268.922 156.222 C 268.832 156.228,260.058 160.692,249.424 166.142 M314.980 157.810 C 314.979 158.457,319.377 188.860,319.487 188.971 C 319.550 189.034,319.761 188.862,319.955 188.589 C 320.150 188.316,322.963 184.522,326.206 180.158 C 329.450 175.794,332.068 172.187,332.024 172.143 C 331.979 172.099,330.423 172.414,328.565 172.843 C 326.707 173.272,325.035 173.624,324.850 173.624 C 324.345 173.624,319.846 167.489,319.846 166.800 C 319.846 166.478,320.141 164.412,320.502 162.209 C 321.267 157.530,321.466 158.048,318.794 157.741 C 315.889 157.407,314.981 157.424,314.980 157.810 M309.880 163.647 L 306.743 168.266 311.691 177.091 C 316.307 185.324,317.234 186.790,316.911 185.339 C 316.840 185.022,315.965 179.002,314.966 171.961 C 313.967 164.920,313.120 159.129,313.083 159.093 C 313.047 159.057,311.606 161.106,309.880 163.647 M347.503 166.462 C 341.095 168.971,335.668 171.138,335.443 171.277 C 335.218 171.416,331.832 175.832,327.918 181.091 L 320.801 190.653 321.796 190.742 C 322.343 190.791,326.625 190.748,331.310 190.648 L 339.828 190.466 349.503 176.475 C 360.310 160.846,359.643 161.834,359.362 161.872 C 359.248 161.887,353.912 163.952,347.503 166.462 M183.191 183.668 C 182.338 191.172,181.672 197.352,181.713 197.402 C 181.811 197.523,213.903 195.170,215.354 194.934 L 216.496 194.749 200.933 182.507 C 192.374 175.774,185.229 170.212,185.057 170.145 C 184.823 170.056,184.347 173.506,183.191 183.668 M85.330 176.469 C 84.931 177.369,83.287 181.197,81.675 184.977 L 78.745 191.849 77.269 192.601 C 76.027 193.234,75.812 193.443,75.911 193.924 C 75.976 194.237,76.341 198.355,76.723 203.073 C 77.104 207.791,77.449 211.693,77.490 211.744 C 77.531 211.795,83.073 208.019,89.806 203.352 L 102.049 194.868 110.273 185.176 L 118.498 175.483 111.938 175.323 C 108.330 175.235,101.030 175.088,95.716 174.997 L 86.054 174.832 85.330 176.469 M229.193 178.181 C 229.193 178.329,245.772 196.632,247.874 198.805 C 248.313 199.258,248.705 198.990,259.056 191.152 C 270.335 182.610,271.008 182.074,270.452 182.074 C 269.866 182.074,230.639 178.243,229.898 178.113 C 229.510 178.045,229.193 178.076,229.193 178.181 M261.371 191.790 C 255.071 196.573,249.912 200.560,249.906 200.649 C 249.895 200.839,287.376 234.811,287.608 234.821 C 287.694 234.824,287.844 231.745,287.942 227.977 L 288.121 221.127 280.664 202.305 C 276.563 191.953,273.122 183.395,273.016 183.288 C 272.911 183.181,267.671 187.007,261.371 191.790 M37.873 197.759 C 38.538 199.485,41.257 206.572,43.914 213.508 C 46.572 220.445,48.822 226.120,48.915 226.120 C 49.008 226.120,51.194 220.387,53.772 213.380 C 56.350 206.373,58.506 200.512,58.565 200.356 C 58.644 200.142,37.662 194.622,36.772 194.622 C 36.712 194.622,37.208 196.034,37.873 197.759 M31.205 203.472 L 27.458 211.258 36.946 218.690 C 42.164 222.778,46.474 226.082,46.523 226.033 C 46.593 225.963,35.157 195.907,34.993 195.730 C 34.970 195.706,33.266 199.190,31.205 203.472 M199.676 198.072 C 189.990 198.809,182.004 199.473,181.929 199.548 C 181.772 199.704,194.336 252.782,194.598 253.070 C 194.692 253.174,199.861 240.728,206.083 225.413 C 218.972 193.688,217.789 196.662,217.505 196.702 C 217.384 196.719,209.361 197.336,199.676 198.072 M90.059 205.520 C 83.606 209.986,78.420 213.723,78.536 213.824 C 79.150 214.365,102.032 230.532,102.363 230.659 C 102.708 230.792,102.736 230.370,102.595 227.121 C 102.506 225.092,102.312 217.785,102.163 210.883 C 102.014 203.982,101.869 198.125,101.842 197.868 C 101.804 197.508,99.090 199.271,90.059 205.520 M180.670 205.932 C 180.579 206.684,179.262 218.236,177.743 231.604 L 174.981 255.910 173.854 256.945 C 173.234 257.513,171.592 259.050,170.204 260.361 L 167.681 262.742 168.143 267.863 C 168.398 270.679,168.669 272.978,168.746 272.972 C 169.475 272.913,193.201 256.321,193.130 255.920 C 192.959 254.942,181.002 204.734,180.921 204.652 C 180.874 204.605,180.762 205.181,180.670 205.932 M251.472 205.245 C 251.472 205.336,255.218 213.602,259.795 223.614 L 268.118 241.818 268.150 250.423 C 268.168 255.155,268.255 260.273,268.342 261.797 L 268.502 264.567 277.944 250.927 L 287.386 237.287 286.523 236.521 C 286.048 236.099,278.071 228.891,268.797 220.502 C 252.688 205.932,251.472 204.861,251.472 205.245 M22.870 219.711 L 19.235 226.354 19.834 231.247 C 20.163 233.937,20.502 236.209,20.588 236.294 C 20.754 236.460,46.078 229.246,46.435 228.931 C 46.596 228.789,26.889 213.047,26.572 213.064 C 26.535 213.066,24.869 216.057,22.870 219.711 M77.488 215.930 C 77.321 216.493,74.719 260.791,74.814 261.436 C 74.896 261.991,102.084 233.657,102.036 233.067 C 102.023 232.916,79.013 216.415,78.037 215.857 C 77.709 215.670,77.558 215.690,77.488 215.930 M33.294 234.807 L 20.365 238.566 18.893 241.882 C 18.084 243.706,17.449 245.328,17.482 245.486 C 17.528 245.707,33.068 257.918,39.287 262.619 L 40.289 263.377 40.131 254.840 L 39.974 246.303 43.317 239.093 C 45.156 235.127,46.768 231.681,46.899 231.434 C 47.264 230.747,47.228 230.756,33.294 234.807 M96.592 241.788 L 89.856 248.966 92.239 250.602 C 101.362 256.863,115.116 266.239,115.148 266.220 C 115.289 266.137,116.289 255.619,116.208 255.069 C 116.114 254.424,103.740 234.549,103.460 234.590 C 103.388 234.601,100.298 237.840,96.592 241.788 M278.873 252.951 C 273.451 260.795,269.014 267.316,269.014 267.442 C 269.014 267.569,271.722 269.227,275.032 271.128 L 281.050 274.585 293.598 272.212 C 300.499 270.907,306.245 269.750,306.366 269.642 C 306.489 269.532,306.413 266.404,306.195 262.592 L 305.803 255.740 297.268 247.215 L 288.732 238.690 278.873 252.951 M13.842 249.363 L 11.467 251.601 11.431 256.055 L 11.396 260.510 19.078 264.861 C 23.303 267.253,26.933 269.203,27.145 269.193 C 27.547 269.175,37.998 265.415,38.628 265.062 C 38.888 264.917,36.042 262.571,28.651 256.840 C 22.963 252.429,17.839 248.439,17.263 247.973 L 16.216 247.125 13.842 249.363 M81.934 257.385 C 78.349 261.201,75.416 264.390,75.416 264.474 C 75.416 264.605,92.150 271.206,94.424 271.972 C 95.175 272.225,111.715 268.377,113.143 267.617 C 113.402 267.479,88.980 250.448,88.524 250.448 C 88.484 250.448,85.519 253.570,81.934 257.385 M201.425 257.136 C 198.477 257.406,196.029 257.663,195.986 257.706 C 195.924 257.768,204.269 275.790,204.444 275.974 C 204.468 275.999,206.585 274.214,209.148 272.008 L 213.810 267.996 210.907 262.359 C 208.408 257.508,207.919 256.717,207.395 256.683 C 207.060 256.662,204.374 256.865,201.425 257.136 M182.299 266.136 C 176.015 270.395,170.916 273.928,170.969 273.988 C 171.058 274.087,202.383 276.564,202.472 276.478 C 202.509 276.442,201.246 273.724,196.237 263.060 C 195.030 260.490,193.971 258.388,193.884 258.389 C 193.797 258.391,188.584 261.877,182.299 266.136 " stroke="none" fill="#fbfbfb" fill-rule="evenodd"></path><path id="path2" d="M121.322 96.980 C 121.640 97.041,122.101 97.039,122.346 96.975 C 122.591 96.911,122.330 96.861,121.767 96.864 C 121.204 96.866,121.003 96.919,121.322 96.980 M107.749 97.236 C 108.068 97.297,108.529 97.295,108.774 97.231 C 109.019 97.167,108.758 97.117,108.195 97.120 C 107.631 97.122,107.431 97.175,107.749 97.236 M94.174 97.492 C 94.491 97.553,95.010 97.553,95.327 97.492 C 95.643 97.431,95.384 97.381,94.750 97.381 C 94.117 97.381,93.857 97.431,94.174 97.492 M80.602 97.748 C 80.919 97.809,81.437 97.809,81.754 97.748 C 82.071 97.687,81.812 97.637,81.178 97.637 C 80.544 97.637,80.285 97.687,80.602 97.748 M67.029 98.004 C 67.346 98.065,67.865 98.065,68.182 98.004 C 68.499 97.943,68.239 97.893,67.606 97.893 C 66.972 97.893,66.713 97.943,67.029 98.004 M53.716 98.261 C 54.035 98.322,54.496 98.319,54.741 98.255 C 54.985 98.191,54.725 98.141,54.161 98.144 C 53.598 98.147,53.398 98.199,53.716 98.261 M40.269 98.512 C 40.515 98.576,40.919 98.576,41.165 98.512 C 41.412 98.448,41.210 98.395,40.717 98.395 C 40.224 98.395,40.022 98.448,40.269 98.512 M112.871 99.029 C 113.190 99.090,113.651 99.088,113.895 99.024 C 114.140 98.959,113.880 98.909,113.316 98.912 C 112.753 98.915,112.553 98.967,112.871 99.029 M99.296 99.284 C 99.613 99.345,100.131 99.345,100.448 99.284 C 100.765 99.223,100.506 99.173,99.872 99.173 C 99.238 99.173,98.979 99.223,99.296 99.284 M85.723 99.541 C 86.040 99.602,86.559 99.602,86.876 99.541 C 87.193 99.479,86.933 99.430,86.300 99.430 C 85.666 99.430,85.407 99.479,85.723 99.541 M72.410 99.797 C 72.729 99.858,73.190 99.856,73.434 99.792 C 73.679 99.728,73.419 99.678,72.855 99.680 C 72.292 99.683,72.092 99.736,72.410 99.797 M58.838 100.053 C 59.156 100.114,59.617 100.112,59.862 100.048 C 60.107 99.984,59.846 99.934,59.283 99.937 C 58.720 99.939,58.519 99.992,58.838 100.053 M45.265 100.309 C 45.584 100.370,46.045 100.368,46.290 100.304 C 46.535 100.240,46.274 100.190,45.711 100.193 C 45.147 100.195,44.947 100.248,45.265 100.309 M58.579 151.532 C 59.177 151.586,60.157 151.586,60.755 151.532 C 61.354 151.478,60.864 151.434,59.667 151.434 C 58.470 151.434,57.980 151.478,58.579 151.532 M38.484 153.582 C 39.157 153.635,40.194 153.634,40.789 153.580 C 41.383 153.527,40.832 153.483,39.565 153.484 C 38.297 153.485,37.811 153.529,38.484 153.582 M88.028 173.036 C 88.345 173.097,88.864 173.097,89.181 173.036 C 89.497 172.975,89.238 172.925,88.604 172.925 C 87.971 172.925,87.711 172.975,88.028 173.036 M102.625 173.292 C 102.942 173.353,103.460 173.353,103.777 173.292 C 104.094 173.231,103.835 173.181,103.201 173.181 C 102.567 173.181,102.308 173.231,102.625 173.292 M117.222 173.548 C 117.538 173.609,118.057 173.609,118.374 173.548 C 118.691 173.487,118.431 173.437,117.798 173.437 C 117.164 173.437,116.905 173.487,117.222 173.548 M132.074 173.804 C 132.391 173.865,132.910 173.865,133.227 173.804 C 133.544 173.743,133.284 173.693,132.650 173.693 C 132.017 173.693,131.757 173.743,132.074 173.804 M97.123 175.088 C 97.512 175.147,98.088 175.145,98.403 175.084 C 98.718 175.023,98.399 174.975,97.695 174.977 C 96.991 174.979,96.733 175.029,97.123 175.088 M111.844 175.341 C 112.161 175.402,112.679 175.402,112.996 175.341 C 113.313 175.280,113.054 175.230,112.420 175.230 C 111.786 175.230,111.527 175.280,111.844 175.341 M332.069 190.710 C 332.523 190.766,333.330 190.767,333.861 190.712 C 334.392 190.656,334.020 190.610,333.035 190.609 C 332.049 190.608,331.614 190.653,332.069 190.710 M101.980 205.634 C 101.980 206.127,102.033 206.328,102.097 206.082 C 102.162 205.835,102.162 205.432,102.097 205.186 C 102.033 204.939,101.980 205.141,101.980 205.634 M102.236 215.877 C 102.236 216.370,102.289 216.572,102.353 216.325 C 102.418 216.079,102.418 215.675,102.353 215.429 C 102.289 215.182,102.236 215.384,102.236 215.877 M102.492 226.120 C 102.492 226.613,102.545 226.815,102.609 226.569 C 102.674 226.322,102.674 225.919,102.609 225.672 C 102.545 225.426,102.492 225.627,102.492 226.120 M287.896 227.913 C 287.896 228.406,287.948 228.608,288.013 228.361 C 288.077 228.115,288.077 227.711,288.013 227.465 C 287.948 227.218,287.896 227.420,287.896 227.913 M40.044 248.656 C 40.044 250.134,40.086 250.739,40.138 250.000 C 40.189 249.261,40.189 248.051,40.138 247.311 C 40.086 246.572,40.044 247.177,40.044 248.656 M268.197 261.076 C 268.199 261.921,268.246 262.235,268.303 261.775 C 268.360 261.315,268.359 260.623,268.301 260.239 C 268.242 259.854,268.196 260.230,268.197 261.076 " stroke="none" fill="#a1a1a1" fill-rule="evenodd"></path><path id="path3" d="M300.323 17.851 C 300.642 17.912,301.103 17.910,301.347 17.846 C 301.592 17.782,301.332 17.731,300.768 17.734 C 300.205 17.737,300.005 17.790,300.323 17.851 M291.104 18.107 C 291.423 18.168,291.884 18.166,292.128 18.102 C 292.373 18.038,292.113 17.987,291.549 17.990 C 290.986 17.993,290.786 18.046,291.104 18.107 M282.010 18.358 C 282.257 18.423,282.660 18.423,282.907 18.358 C 283.153 18.294,282.951 18.241,282.458 18.241 C 281.965 18.241,281.764 18.294,282.010 18.358 M272.791 18.614 C 273.038 18.679,273.441 18.679,273.688 18.614 C 273.934 18.550,273.732 18.497,273.239 18.497 C 272.746 18.497,272.545 18.550,272.791 18.614 M263.572 18.871 C 263.819 18.935,264.222 18.935,264.469 18.871 C 264.715 18.806,264.513 18.753,264.020 18.753 C 263.528 18.753,263.326 18.806,263.572 18.871 M254.353 19.127 C 254.600 19.191,255.003 19.191,255.250 19.127 C 255.496 19.062,255.294 19.009,254.802 19.009 C 254.309 19.009,254.107 19.062,254.353 19.127 M245.134 19.383 C 245.381 19.447,245.784 19.447,246.031 19.383 C 246.277 19.318,246.076 19.266,245.583 19.266 C 245.090 19.266,244.888 19.318,245.134 19.383 M342.125 35.444 C 342.125 35.788,344.005 39.179,344.128 39.056 C 344.189 38.995,343.921 38.336,343.533 37.590 C 342.725 36.040,342.125 35.125,342.125 35.444 M71.002 41.421 C 69.617 42.910,68.373 44.661,68.377 45.117 C 68.378 45.302,68.695 45.054,69.081 44.565 C 71.804 41.114,72.478 40.205,72.317 40.205 C 72.216 40.205,71.624 40.752,71.002 41.421 M124.008 96.982 C 124.395 97.041,125.029 97.041,125.416 96.982 C 125.803 96.924,125.487 96.876,124.712 96.876 C 123.937 96.876,123.620 96.924,124.008 96.982 M110.435 97.238 C 110.823 97.297,111.456 97.297,111.844 97.238 C 112.231 97.180,111.914 97.132,111.140 97.132 C 110.365 97.132,110.048 97.180,110.435 97.238 M97.123 97.495 C 97.512 97.554,98.088 97.552,98.403 97.491 C 98.718 97.431,98.399 97.382,97.695 97.384 C 96.991 97.386,96.733 97.436,97.123 97.495 M83.550 97.751 C 83.940 97.810,84.516 97.808,84.831 97.747 C 85.146 97.687,84.827 97.639,84.123 97.640 C 83.419 97.642,83.161 97.692,83.550 97.751 M69.974 98.007 C 70.362 98.065,70.996 98.065,71.383 98.007 C 71.770 97.948,71.453 97.900,70.679 97.900 C 69.904 97.900,69.587 97.948,69.974 98.007 M56.402 98.263 C 56.789 98.321,57.423 98.321,57.810 98.263 C 58.198 98.204,57.881 98.156,57.106 98.156 C 56.332 98.156,56.015 98.204,56.402 98.263 M42.830 98.519 C 43.217 98.578,43.851 98.578,44.238 98.519 C 44.625 98.460,44.309 98.412,43.534 98.412 C 42.759 98.412,42.442 98.460,42.830 98.519 M123.239 98.775 C 123.627 98.834,124.261 98.834,124.648 98.775 C 125.035 98.716,124.718 98.668,123.944 98.668 C 123.169 98.668,122.852 98.716,123.239 98.775 M109.667 99.031 C 110.054 99.090,110.688 99.090,111.076 99.031 C 111.463 98.972,111.146 98.924,110.371 98.924 C 109.597 98.924,109.280 98.972,109.667 99.031 M96.095 99.287 C 96.482 99.346,97.116 99.346,97.503 99.287 C 97.891 99.228,97.574 99.180,96.799 99.180 C 96.024 99.180,95.707 99.228,96.095 99.287 M82.782 99.544 C 83.171 99.602,83.747 99.601,84.062 99.540 C 84.377 99.479,84.059 99.431,83.355 99.433 C 82.650 99.435,82.393 99.485,82.782 99.544 M69.210 99.800 C 69.599 99.858,70.175 99.857,70.490 99.796 C 70.805 99.735,70.487 99.687,69.782 99.689 C 69.078 99.691,68.820 99.741,69.210 99.800 M55.634 100.055 C 56.021 100.114,56.655 100.114,57.042 100.055 C 57.430 99.997,57.113 99.949,56.338 99.949 C 55.563 99.949,55.246 99.997,55.634 100.055 M42.061 100.311 C 42.449 100.370,43.083 100.370,43.470 100.311 C 43.857 100.253,43.540 100.205,42.766 100.205 C 41.991 100.205,41.674 100.253,42.061 100.311 M275.928 123.688 C 276.622 124.392,277.247 124.968,277.317 124.968 C 277.388 124.968,276.878 124.392,276.184 123.688 C 275.491 122.983,274.866 122.407,274.795 122.407 C 274.725 122.407,275.235 122.983,275.928 123.688 M380.397 134.418 C 380.263 134.545,379.923 134.705,379.641 134.773 C 379.156 134.889,379.157 134.897,379.674 134.925 C 379.974 134.942,380.362 134.782,380.538 134.571 C 380.885 134.152,380.788 134.046,380.397 134.418 M33.519 151.677 C 33.632 151.789,34.578 151.845,35.620 151.802 L 37.516 151.724 35.415 151.598 C 34.259 151.529,33.406 151.564,33.519 151.677 M64.853 151.533 C 65.522 151.585,66.617 151.585,67.286 151.533 C 67.955 151.480,67.407 151.437,66.069 151.437 C 64.731 151.437,64.184 151.480,64.853 151.533 M63.454 153.327 C 64.340 153.377,65.723 153.377,66.527 153.326 C 67.332 153.275,66.607 153.234,64.917 153.235 C 63.227 153.235,62.569 153.277,63.454 153.327 M33.998 153.574 C 34.316 153.635,34.777 153.633,35.022 153.569 C 35.267 153.505,35.006 153.455,34.443 153.458 C 33.880 153.461,33.679 153.513,33.998 153.574 M99.300 173.297 C 99.761 173.354,100.452 173.353,100.837 173.294 C 101.222 173.236,100.845 173.189,100.000 173.191 C 99.155 173.192,98.840 173.240,99.300 173.297 M114.020 173.551 C 114.408 173.610,115.042 173.610,115.429 173.551 C 115.816 173.492,115.499 173.444,114.725 173.444 C 113.950 173.444,113.633 173.492,114.020 173.551 M128.617 173.807 C 129.004 173.866,129.638 173.866,130.026 173.807 C 130.413 173.748,130.096 173.700,129.321 173.700 C 128.547 173.700,128.230 173.748,128.617 173.807 M86.364 174.824 C 86.610 174.889,87.013 174.889,87.260 174.824 C 87.506 174.760,87.305 174.707,86.812 174.707 C 86.319 174.707,86.117 174.760,86.364 174.824 M363.963 174.962 C 363.587 175.437,363.086 176.440,363.226 176.440 C 363.434 176.440,364.466 174.880,364.341 174.755 C 364.275 174.689,364.105 174.782,363.963 174.962 M100.192 175.087 C 100.579 175.146,101.213 175.146,101.601 175.087 C 101.988 175.029,101.671 174.981,100.896 174.981 C 100.122 174.981,99.805 175.029,100.192 175.087 M114.921 175.346 C 115.382 175.403,116.073 175.401,116.458 175.343 C 116.843 175.285,116.466 175.238,115.621 175.239 C 114.776 175.241,114.461 175.289,114.921 175.346 M336.934 190.710 C 337.389 190.766,338.195 190.767,338.727 190.712 C 339.258 190.656,338.886 190.610,337.900 190.609 C 336.914 190.608,336.480 190.653,336.934 190.710 M101.985 203.457 C 101.988 204.020,102.040 204.221,102.102 203.902 C 102.163 203.584,102.161 203.123,102.097 202.878 C 102.032 202.633,101.982 202.894,101.985 203.457 M102.241 213.700 C 102.244 214.264,102.297 214.464,102.358 214.146 C 102.419 213.827,102.417 213.366,102.353 213.121 C 102.289 212.876,102.238 213.137,102.241 213.700 M102.497 223.688 C 102.500 224.251,102.553 224.451,102.614 224.133 C 102.675 223.814,102.673 223.353,102.609 223.108 C 102.545 222.864,102.495 223.124,102.497 223.688 M287.896 229.962 C 287.896 230.455,287.948 230.656,288.013 230.410 C 288.077 230.163,288.077 229.760,288.013 229.513 C 287.948 229.267,287.896 229.469,287.896 229.962 M290.269 240.205 C 291.105 241.050,291.847 241.741,291.917 241.741 C 291.988 241.741,291.361 241.050,290.525 240.205 C 289.689 239.360,288.947 238.668,288.876 238.668 C 288.806 238.668,289.433 239.360,290.269 240.205 M267.948 243.790 C 267.948 244.846,267.993 245.278,268.048 244.750 C 268.104 244.222,268.104 243.358,268.048 242.830 C 267.993 242.302,267.948 242.734,267.948 243.790 M80.666 278.800 C 80.877 278.878,81.280 279.048,81.562 279.178 C 82.066 279.410,82.066 279.407,81.577 279.015 C 81.304 278.796,80.900 278.626,80.681 278.637 C 80.336 278.655,80.334 278.677,80.666 278.800 M108.195 279.223 C 107.410 279.461,107.276 279.574,107.621 279.708 C 108.118 279.901,109.202 279.570,109.465 279.145 C 109.670 278.815,109.510 278.824,108.195 279.223 M25.549 280.595 C 26.009 280.652,26.700 280.651,27.085 280.593 C 27.470 280.534,27.093 280.488,26.248 280.489 C 25.403 280.491,25.088 280.538,25.549 280.595 " stroke="none" fill="#7c7c7c" fill-rule="evenodd"></path><path id="path4" d="M62.164 151.525 C 62.481 151.586,62.999 151.586,63.316 151.525 C 63.633 151.464,63.374 151.414,62.740 151.414 C 62.106 151.414,61.847 151.464,62.164 151.525 M35.787 153.574 C 36.104 153.635,36.623 153.635,36.940 153.574 C 37.257 153.513,36.997 153.463,36.364 153.463 C 35.730 153.463,35.471 153.513,35.787 153.574 M335.019 190.701 C 335.266 190.766,335.669 190.766,335.915 190.701 C 336.162 190.637,335.960 190.584,335.467 190.584 C 334.974 190.584,334.773 190.637,335.019 190.701 M268.177 263.252 C 268.177 263.745,268.230 263.947,268.294 263.700 C 268.359 263.454,268.359 263.051,268.294 262.804 C 268.230 262.558,268.177 262.759,268.177 263.252 " stroke="none" fill="#848484" fill-rule="evenodd"></path></g></svg>